<svg width="718" height="504" viewBox="0 0 718 504" fill="none" xmlns="http://www.w3.org/2000/svg">
<path fill-rule="evenodd" clip-rule="evenodd" d="M718 0H0V504H718V0ZM666.068 96.3893C648.395 96.3893 634.068 110.716 634.068 128.389V244.098C634.068 261.771 648.395 276.098 666.068 276.098H672.599C690.272 276.098 704.599 261.771 704.599 244.098V128.389C704.599 110.716 690.272 96.3893 672.599 96.3893H666.068ZM634.068 324.435C634.068 306.762 648.395 292.435 666.068 292.435H672.599C690.272 292.435 704.599 306.762 704.599 324.435V342.12C704.599 359.793 690.272 374.12 672.599 374.12H666.068C648.395 374.12 634.068 359.793 634.068 342.12V324.435ZM598.804 243.423C587.118 243.423 577.645 252.897 577.645 264.582V352.961C577.645 364.647 587.118 374.12 598.804 374.12C610.49 374.12 619.963 364.647 619.963 352.961V264.582C619.963 252.897 610.49 243.423 598.804 243.423ZM295.521 389.783C295.521 372.11 309.848 357.783 327.521 357.783H418.688C436.362 357.783 450.688 372.11 450.688 389.783V456.48C450.688 474.153 436.362 488.48 418.688 488.48H327.521C309.848 488.48 295.521 474.153 295.521 456.48V389.783ZM496.795 243.423C479.122 243.423 464.795 257.75 464.795 275.423V342.12C464.795 359.793 479.122 374.12 496.795 374.12H531.538C549.211 374.12 563.538 359.793 563.538 342.12V275.423C563.538 257.75 549.211 243.423 531.538 243.423H496.795ZM507.113 46.7037C507.113 29.0306 521.44 14.7037 539.113 14.7037H587.962C605.635 14.7037 619.962 29.0306 619.962 46.7037V195.086C619.962 212.759 605.635 227.086 587.962 227.086H539.113C521.44 227.086 507.113 212.759 507.113 195.086V46.7037ZM412.158 145.401C394.485 145.401 380.158 159.728 380.158 177.401V195.086C380.158 212.759 394.485 227.086 412.158 227.086H461.007C478.68 227.086 493.007 212.759 493.007 195.086V177.401C493.007 159.727 478.68 145.401 461.007 145.401H412.158ZM83.9316 406.12C83.9316 388.447 98.2585 374.12 115.932 374.12H164.78C182.453 374.12 196.78 388.447 196.78 406.12V456.48C196.78 474.153 182.453 488.48 164.78 488.48H115.932C98.2586 488.48 83.9316 474.153 83.9316 456.48V406.12ZM41.6126 390.457C26.0314 390.457 13.4004 403.088 13.4004 418.67V460.268C13.4004 475.849 26.0314 488.48 41.6126 488.48C57.1937 488.48 69.8248 475.849 69.8248 460.268V418.67C69.8248 403.088 57.1937 390.457 41.6126 390.457ZM210.885 340.772C210.885 323.099 225.212 308.772 242.885 308.772H249.415C267.088 308.772 281.415 323.099 281.415 340.772V456.48C281.415 474.153 267.088 488.48 249.415 488.48H242.885C225.212 488.48 210.885 474.153 210.885 456.48V340.772ZM341.629 240.156C323.956 240.156 309.629 254.483 309.629 272.156V309.446C309.629 327.119 323.956 341.446 341.629 341.446H418.69C436.363 341.446 450.69 327.119 450.69 309.446V272.156C450.69 254.483 436.363 240.156 418.69 240.156H341.629ZM464.795 422.457C464.795 404.784 479.122 390.457 496.795 390.457H672.599C690.272 390.457 704.598 404.784 704.598 422.457V456.48C704.598 474.153 690.272 488.48 672.598 488.48H496.795C479.122 488.48 464.795 474.153 464.795 456.48V422.457ZM666.068 14.7037C648.395 14.7037 634.068 29.0305 634.068 46.7037V48.0521C634.068 65.7253 648.395 80.0521 666.068 80.0521H672.599C690.272 80.0521 704.599 65.7253 704.599 48.0522V46.7037C704.599 29.0306 690.272 14.7037 672.599 14.7037H666.068ZM323.734 46.7037C323.734 29.0306 338.061 14.7037 355.734 14.7037H461.007C478.681 14.7037 493.007 29.0306 493.007 46.7037V97.0635C493.007 114.737 478.681 129.063 461.007 129.063H355.734C338.061 129.063 323.734 114.737 323.734 97.0635V46.7037ZM242.885 14.7037C225.212 14.7037 210.885 29.0306 210.885 46.7037V97.0635C210.885 114.737 225.212 129.063 242.885 129.063H277.627C295.301 129.063 309.627 114.737 309.627 97.0635V46.7037C309.627 29.0306 295.301 14.7037 277.627 14.7037H242.885ZM323.734 169.827C323.734 158.141 333.208 148.668 344.894 148.668C356.579 148.668 366.053 158.141 366.053 169.827V205.927C366.053 217.613 356.579 227.086 344.894 227.086C333.208 227.086 323.734 217.613 323.734 205.927V169.827ZM158.25 145.401C140.577 145.401 126.25 159.727 126.25 177.401V260.435C126.25 278.108 140.577 292.435 158.25 292.435H263.523C281.196 292.435 295.523 278.108 295.523 260.435V177.401C295.523 159.727 281.196 145.401 263.523 145.401H158.25ZM126.25 333.277C126.25 319.743 137.222 308.772 150.756 308.772H172.275C185.809 308.772 196.78 319.743 196.78 333.277C196.78 346.812 185.809 357.783 172.275 357.783H150.756C137.222 357.783 126.25 346.812 126.25 333.277ZM45.4004 194.412C27.7273 194.412 13.4004 208.739 13.4004 226.412V325.783C13.4004 343.456 27.7273 357.783 45.4004 357.783H80.143C97.8161 357.783 112.143 343.456 112.143 325.783V226.412C112.143 208.739 97.8161 194.412 80.143 194.412H45.4004Z" fill="white"/>
</svg>
