<svg width="16" height="16" viewBox="0 0 16 16" fill="none" xmlns="http://www.w3.org/2000/svg">
<circle cx="8" cy="8" r="8" fill="#C7A3D2"/>
<circle cx="8" cy="8" r="7" fill="#EDC2FA"/>
<path d="M11.4286 9H4.57143C4.41988 9 4.27453 8.89464 4.16737 8.70711C4.0602 8.51957 4 8.26522 4 8C4 7.73478 4.0602 7.48043 4.16737 7.29289C4.27453 7.10536 4.41988 7 4.57143 7H11.4286C11.5801 7 11.7255 7.10536 11.8326 7.29289C11.9398 7.48043 12 7.73478 12 8C12 8.26522 11.9398 8.51957 11.8326 8.70711C11.7255 8.89464 11.5801 9 11.4286 9Z" fill="black"/>
</svg>
