<svg width="48" height="48" viewBox="0 0 48 48" fill="none" xmlns="http://www.w3.org/2000/svg">
<circle cx="24" cy="24" r="24" fill="#E3FADC"/>
<circle cx="24.0006" cy="23.9996" r="18.5806" fill="#46EB14"/>
<path d="M23.9992 10.8389C22.2708 10.8389 20.5594 11.1793 18.9626 11.8407C17.3658 12.5021 15.9149 13.4716 14.6927 14.6937C12.2245 17.1619 10.8379 20.5096 10.8379 24.0002C10.8379 27.4907 12.2245 30.8384 14.6927 33.3066C15.9149 34.5287 17.3658 35.4982 18.9626 36.1596C20.5594 36.821 22.2708 37.1614 23.9992 37.1614C27.4898 37.1614 30.8374 35.7748 33.3056 33.3066C35.7738 30.8384 37.1605 27.4907 37.1605 24.0002C37.1605 22.2718 36.82 20.5604 36.1586 18.9635C35.4972 17.3667 34.5278 15.9159 33.3056 14.6937C32.0835 13.4716 30.6326 12.5021 29.0358 11.8407C27.439 11.1793 25.7275 10.8389 23.9992 10.8389ZM29.5269 29.5279L22.6831 25.3163V17.4195H24.6572V24.2634L30.5798 27.8169L29.5269 29.5279Z" fill="white"/>
</svg>
