<svg width="680" height="451" viewBox="0 0 680 451" fill="none" xmlns="http://www.w3.org/2000/svg">
<g clip-path="url(#clip0_1163_2048)">
<path d="M115.109 49.0628C114.905 48.8851 114.713 48.6953 114.514 48.5127C114.507 48.5314 114.506 48.5506 114.498 48.5693L115.109 49.0628Z" fill="#2F2E41"/>
<path d="M553.829 148.421C553.776 175.286 543.628 201.159 525.38 220.954C507.132 240.75 482.104 253.035 455.217 255.395C428.33 257.755 401.528 250.019 380.081 233.708C358.633 217.397 344.092 193.691 339.316 167.25C334.539 140.809 339.873 113.547 354.269 90.8215C368.665 68.0964 391.08 51.553 417.11 44.4437C443.139 37.3343 470.899 40.1733 494.932 52.4025C518.965 64.6317 537.532 85.3664 546.984 110.53C547.22 111.162 547.45 111.794 547.673 112.432V112.438C548.671 115.243 549.55 118.099 550.31 121.008C552.654 129.959 553.836 139.171 553.829 148.421Z" fill="#21042A"/>
<path d="M433.082 75.3333C428.191 72.7007 422.761 71.2146 417.205 70.9884C411.649 70.7622 406.115 71.8017 401.024 74.0278C396.541 75.9694 391.821 79.4524 390.326 85.742C396.374 82.1896 404.202 87.8023 405.759 96.8062L405.395 96.9059C404.573 103.142 406.408 109.932 409.961 113.799C410.225 112.054 410.876 110.39 411.867 108.927C412.858 107.464 414.165 106.239 415.691 105.341C418.301 103.633 421.188 102.393 423.18 99.4575C425.542 95.9776 426.142 90.8918 427.08 86.2523C428.018 81.6127 429.798 76.626 433.082 75.3333Z" fill="#46EB14"/>
<path d="M399.23 128.404C397.555 130.907 395.318 132.478 393.311 134.434C390.993 136.532 389.473 139.361 389.005 142.444C388.751 144.623 389.144 146.837 389.09 149.04C389.036 151.243 388.298 153.722 386.792 154.27C384.416 155.124 382.602 150.731 380.159 150.424C378.218 150.184 376.471 153.223 377.033 155.859C377.596 158.495 380.238 159.662 381.756 157.941C383.128 160.234 382.161 164.392 380.099 165.097C379.881 166.541 379.663 167.979 379.452 169.424C374.24 165.795 368.973 162.106 364.541 156.791C359.612 150.931 356.554 143.739 355.761 136.137C355.187 130.029 356.04 123.042 353.222 118.342C350.966 114.58 347.097 113.75 343.614 113.984C342.979 114.026 342.338 114.099 341.703 114.177C343.757 108.037 346.366 102.095 349.497 96.4233C350.206 96.1206 350.864 95.7127 351.45 95.2136C354.691 92.4754 356.13 86.9326 358.76 83.099C358.93 82.8523 359.105 82.6115 359.286 82.3769C361.977 78.8803 365.581 77.0808 369.064 75.4078C376.773 71.6826 384.706 67.9092 392.845 68.4267L390.529 68.6494C387.826 76.1842 385.121 83.7189 382.414 91.2537C382.003 92.4091 381.588 93.5666 381.169 94.7262C379.633 99.011 378.049 103.573 378.285 108.369C378.424 111.21 379.415 114.243 381.302 115.218C383.061 116.121 384.984 115.013 386.683 113.918C387.403 113.461 388.116 113.003 388.836 112.54C391.418 110.885 394.278 109.188 397.005 110.295C399.502 111.306 401.346 114.682 401.697 118.323C402.019 121.863 401.151 125.408 399.23 128.404Z" fill="#46EB14"/>
<path d="M414.586 179.846C407.045 175.225 399.505 170.603 391.964 165.982L392.092 165.654C387.404 167.432 385.457 175.726 386.232 182.51C387.007 189.293 389.634 195.357 390.961 201.967C392.751 211.012 392.075 220.369 389.005 229.066C398.92 217.992 407.696 205.957 415.199 193.141C416.247 191.526 417.046 189.763 417.568 187.912C418.122 185.939 417.924 183.833 417.014 181.996C416.397 181.089 415.562 180.35 414.586 179.846Z" fill="#46EB14"/>
<path d="M384.824 95.775C383.939 97.6673 383.803 99.8223 384.442 101.81C385.186 103.412 386.536 104.656 388.198 105.272L392.364 107.327C393.75 108.011 395.244 108.702 396.657 108.139C398.362 107.461 399.543 104.801 399.238 102.332C398.912 99.7053 397.248 97.8982 395.71 96.3592C393.556 94.2056 391.403 92.052 389.249 89.8984L388.036 91.3779C386.723 92.6523 385.637 94.1391 384.824 95.775Z" fill="#46EB14"/>
<path d="M531.492 123.86C533.367 124.299 535.241 124.739 537.115 125.178C536.789 131.479 533.651 137.311 529.442 139.423C527.689 140.302 525.736 140.627 524.285 142.27C522.973 143.762 522.307 146.085 521.697 148.306C520.626 152.181 519.556 156.057 518.486 159.933C517.337 164.109 515.862 168.749 512.875 170.254C510.311 171.548 507.378 169.965 505.407 167.311C503.436 164.657 502.233 161.088 501.066 157.61C501.138 161.401 499.367 165.12 496.857 166.438C494.342 167.756 491.282 166.565 489.602 163.622C488.392 161.51 487.89 158.723 486.705 156.581C485.52 154.438 483.035 153.211 481.741 155.221C480.888 156.557 480.997 158.603 480.574 160.3C480.361 161.427 479.8 162.459 478.97 163.254C478.14 164.049 477.082 164.567 475.942 164.735C474.895 164.711 473.863 164.475 472.909 164.042C471.956 163.608 471.102 162.986 470.398 162.214C466.695 158.444 464.284 153.605 463.511 148.39C462.986 145.889 463.052 143.302 463.704 140.831C464.448 138.49 466.244 136.685 468.027 137.13C469.2 134.662 466.885 131.389 464.799 131.677C462.706 131.966 461.068 134.199 459.351 135.914C457.639 137.629 455.245 138.875 453.522 137.172C453.56 137.795 453.349 138.408 452.933 138.875C452.518 139.343 451.933 139.627 451.307 139.666C451.245 139.669 451.183 139.671 451.121 139.67C449.975 139.342 448.911 138.781 447.995 138.021C444.047 135.571 439.034 137.196 436.229 141.83C437.982 134.404 440.552 125.882 445.939 124.137C448.14 123.421 450.541 124.01 452.621 122.771C456.303 120.574 457.047 112.275 453.866 108.851C454.271 112.088 454.193 115.868 452.476 118.082C450.758 120.297 447.155 118.853 447.372 115.579C447.324 116.039 447.129 116.473 446.818 116.817C446.507 117.161 446.094 117.398 445.639 117.494C445.184 117.59 444.71 117.54 444.285 117.352C443.86 117.164 443.506 116.846 443.273 116.446C442.13 114.712 442.227 111.878 443.037 109.808C443.872 107.932 445.07 106.239 446.562 104.825C449.434 101.761 452.349 98.6619 455.674 96.7361C459.006 94.8103 462.852 94.1604 466.189 96.0742C467.949 97.0851 469.497 98.7703 471.293 99.6609C471.715 99.9216 472.184 100.097 472.674 100.177C473.164 100.257 473.665 100.24 474.149 100.127C474.633 100.015 475.089 99.8084 475.492 99.52C475.896 99.2317 476.238 98.8671 476.5 98.4471C476.52 98.4147 476.54 98.382 476.559 98.3489C477.896 96.0138 477.267 92.5474 477.763 89.6286C478.651 84.4711 483.833 82.0578 486.705 85.4641C484.559 84.9165 482.34 87.4441 482.074 90.5074C481.802 93.5706 483.356 96.6639 485.436 97.5907C488.931 99.1313 492.353 95.2556 494.995 91.6688C497.752 87.9135 500.514 84.1601 503.279 80.4089C503.72 79.7702 504.216 79.1702 504.76 78.6155C505.626 77.7752 506.781 77.2941 507.99 77.2695C509.199 77.245 510.373 77.6788 511.272 78.4831C514.066 80.7519 515.378 85.404 517.67 88.6056C520.995 93.2576 525.972 94.3891 530.603 95.2918C534.056 95.9598 537.51 96.6318 540.967 97.3079C543.271 101.574 545.281 105.992 546.983 110.53C540.645 113.407 535.268 118.033 531.492 123.86Z" fill="#46EB14"/>
<path d="M550.309 121.007C549.601 123.086 549.213 125.259 549.16 127.453C546.197 123.854 545.726 117.108 547.673 112.438C548.671 115.242 549.549 118.099 550.309 121.007Z" fill="#46EB14"/>
<path d="M542.655 196.271C540.064 201.507 537.051 206.524 533.645 211.274C531.468 210.348 529.128 212.003 527.091 213.555C524.962 215.18 522.405 216.763 520.222 215.282C517.991 213.766 517.271 209.523 517.979 206.159C518.792 203.056 520.214 200.143 522.163 197.589C523.977 194.893 525.918 192.094 528.439 191.047C530.967 190 534.214 191.481 534.951 195.055L536.741 194.995C535.737 193.623 536.263 190.782 537.612 190.283C539.166 189.699 540.514 191.824 541.433 193.701C541.844 194.55 542.261 195.405 542.655 196.271Z" fill="#46EB14"/>
<path d="M474.107 170.85C470.26 171.091 467.213 166.377 465.188 161.74C463.163 157.103 461.315 151.8 457.844 149.44C455.861 148.091 453.6 147.906 451.448 147.253C450.228 146.946 449.099 146.354 448.154 145.526C447.21 144.699 446.477 143.659 446.017 142.493L443.576 141.512C440.163 143.21 437.037 145.429 434.311 148.087C431.196 151.38 429.256 155.601 428.79 160.1C428.324 164.962 430.045 170.383 433.262 172.209C435.803 173.652 438.762 172.743 441.337 174.064C444.553 175.714 446.463 180.509 447.186 185.243C447.909 189.977 447.725 194.897 448.242 199.685C448.76 204.473 450.185 209.455 453.135 211.909C456.826 214.979 462.242 212.428 463.898 206.838C464.711 204.097 464.683 201.003 465.29 198.157C466.36 193.146 469.247 189.427 471.537 185.316C473.827 181.205 475.63 175.621 474.107 170.85Z" fill="#46EB14"/>
<path d="M436.092 121.603C436.451 121.932 436.785 122.286 437.094 122.662C437.413 123.209 437.576 123.833 437.565 124.466C437.554 125.099 437.37 125.716 437.032 126.253C437.496 126.227 437.948 126.105 438.362 125.896C438.776 125.686 439.142 125.394 439.436 125.037C440.138 124.241 440.756 123.375 441.279 122.453C441.525 122.137 441.701 121.772 441.795 121.384C441.888 120.995 441.898 120.591 441.823 120.199C441.641 119.682 441.211 119.462 440.91 119.074C440.492 118.315 440.207 117.491 440.067 116.637C439.9 115.836 439.512 115.098 438.946 114.505C438.381 113.912 437.661 113.487 436.866 113.279L437.059 113.316C436.731 113.51 436.472 113.801 436.318 114.149C436.165 114.496 436.124 114.883 436.202 115.255C436.319 116.006 436.804 116.629 436.756 117.395C436.686 118.497 435.58 119.013 435.512 120.115C435.501 120.668 435.71 121.202 436.092 121.603Z" fill="#46EB14"/>
<path d="M429.502 102.886L429.519 102.883C429.637 102.775 429.747 102.659 429.847 102.535L429.502 102.886Z" fill="#46EB14"/>
<path d="M430.655 108.056C431.117 107.653 431.459 107.13 431.643 106.547C431.827 105.963 431.847 105.34 431.7 104.746C431.42 103.494 430.431 102.652 429.519 102.883C429.254 103.15 428.926 103.346 428.564 103.452C428.202 103.558 427.82 103.57 427.452 103.489C426.888 103.344 426.269 102.972 425.779 103.395C425.499 103.711 425.304 104.091 425.21 104.502C425.029 105.055 424.848 105.609 424.666 106.162C424.58 106.36 424.558 106.579 424.602 106.791C424.637 106.875 424.693 106.95 424.765 107.006C424.837 107.063 424.922 107.101 425.013 107.115C426.099 107.434 427.186 107.753 428.272 108.072C428.646 108.243 429.053 108.331 429.465 108.328C429.877 108.325 430.283 108.233 430.655 108.056Z" fill="#46EB14"/>
<path d="M512.672 179.431C512.17 178.612 511.668 177.794 511.165 176.976C510.672 176.028 509.998 175.185 509.18 174.495C509.003 174.347 508.799 174.236 508.578 174.167C508.358 174.098 508.126 174.072 507.896 174.093C507.666 174.113 507.442 174.178 507.237 174.284C507.032 174.391 506.85 174.536 506.702 174.712L506.676 174.744L506.737 175.212C508.082 176.647 508.998 178.426 509.383 180.351C509.498 181.187 509.458 182.052 509.558 182.892C509.569 183.282 509.656 183.665 509.816 184.021C509.976 184.377 510.204 184.698 510.489 184.966C511.279 185.491 512.208 184.716 512.771 183.77C513.274 182.993 513.499 182.07 513.411 181.15C513.286 180.533 513.034 179.947 512.672 179.431Z" fill="#46EB14"/>
<path d="M520.55 180.496C520.646 179.73 520.583 178.952 520.366 178.211C520.331 177.208 520.598 176.218 521.133 175.368C521.665 174.566 522.068 173.686 522.328 172.76C522.438 172.339 522.418 171.894 522.271 171.484C522.105 171.112 521.702 170.942 521.471 171.237L521.965 171.554C521.298 171.435 520.612 171.468 519.96 171.65C519.587 171.792 519.255 172.021 518.99 172.318C518.725 172.615 518.537 172.971 518.439 173.356C518.358 173.956 518.224 174.548 518.041 175.125C517.746 175.729 517.175 175.929 516.817 176.459C516.572 176.928 516.449 177.45 516.457 177.979C516.466 178.508 516.607 179.026 516.867 179.487C517.317 180.241 518.033 180.801 518.876 181.059C519.479 181.274 520.274 181.286 520.55 180.496Z" fill="#46EB14"/>
<path d="M534.579 184.709C534.797 185.274 535.09 185.808 535.448 186.297C536.12 186.97 537.033 186.556 537.848 186.393C538.587 186.276 539.344 186.362 540.039 186.639C540.734 186.916 541.34 187.376 541.794 187.968C541.478 186.4 540.788 184.929 539.783 183.681C538.778 182.433 537.486 181.443 536.017 180.794C534.108 180.137 532.095 179.823 530.076 179.87L529.73 179.958C530.61 182.505 533.371 182.448 534.579 184.709Z" fill="#46EB14"/>
<path d="M475.16 189.919L475.165 189.93L475.265 189.738L475.16 189.919Z" fill="#46EB14"/>
<path d="M473.03 194.02C472.566 194.858 472.167 195.731 471.836 196.63C471.398 198.087 471.109 199.583 470.971 201.097C470.863 201.958 470.829 203.058 471.371 203.477C471.527 203.58 471.715 203.623 471.9 203.598C472.085 203.573 472.255 203.482 472.377 203.341C472.678 203.024 472.924 202.66 473.106 202.263C474.171 200.437 474.998 198.484 475.567 196.45C476.16 194.292 476.019 192 475.164 189.931C474.453 191.294 473.742 192.657 473.03 194.02Z" fill="#46EB14"/>
<path d="M452.499 84.7802C452.837 85.1091 453.264 85.3323 453.728 85.4225C454.192 85.5126 454.672 85.4657 455.11 85.2875C456.016 84.8932 456.847 84.3468 457.567 83.6721C458.163 83.2331 458.669 82.684 459.057 82.0549C459.27 81.6789 459.407 81.2646 459.459 80.8359C459.512 80.4071 459.478 79.9722 459.361 79.5563C459.195 79.1578 458.929 78.8082 458.589 78.5404C458.249 78.2727 457.846 78.0957 457.418 78.0261C456.212 77.6702 455.006 77.3143 453.8 76.9584L454.672 76.1759C453.775 75.6965 452.782 76.5862 452.221 77.6878C451.861 78.407 451.611 79.1753 451.477 79.9677C451.286 80.7956 451.279 81.6549 451.455 82.486C451.632 83.317 451.988 84.0999 452.499 84.7802Z" fill="#46EB14"/>
<path d="M473.788 77.6665C474.128 78.0394 474.598 78.2696 475.102 78.3104C475.606 78.3513 476.107 78.1996 476.503 77.8863C476.844 77.6315 477.127 77.3081 477.334 76.9372C477.541 76.5663 477.667 76.1562 477.704 75.7335C477.789 74.7894 477.32 73.7401 476.651 73.6586L476.804 72.7747C475.513 72.5427 473.926 72.4963 473.234 74.0559C473.001 74.6533 472.929 75.3012 473.027 75.9348C473.124 76.5684 473.386 77.1655 473.788 77.6665Z" fill="#46EB14"/>
<path d="M337.609 341.877C345.055 341.877 351.09 335.87 351.09 328.46C351.09 321.05 345.055 315.043 337.609 315.043C330.164 315.043 324.129 321.05 324.129 328.46C324.129 335.87 330.164 341.877 337.609 341.877Z" fill="#46EB14"/>
<path d="M72.1525 262.663C79.5976 262.663 85.633 256.656 85.633 249.245C85.633 241.835 79.5976 235.828 72.1525 235.828C64.7073 235.828 58.6719 241.835 58.6719 249.245C58.6719 256.656 64.7073 262.663 72.1525 262.663Z" fill="#EDC2FA"/>
<path d="M319.662 57.0021C324.22 57.0021 327.915 53.3248 327.915 48.7886C327.915 44.2525 324.22 40.5752 319.662 40.5752C315.105 40.5752 311.41 44.2525 311.41 48.7886C311.41 53.3248 315.105 57.0021 319.662 57.0021Z" fill="#EDC2FA"/>
<path d="M269.734 119.003C277.18 119.003 283.215 112.996 283.215 105.586C283.215 98.1761 277.18 92.1689 269.734 92.1689C262.289 92.1689 256.254 98.1761 256.254 105.586C256.254 112.996 262.289 119.003 269.734 119.003Z" fill="#EDC2FA"/>
<path d="M67.1523 341.271L72.6945 342.997L109.885 224.713C108.364 224.328 106.753 224.537 105.382 225.297C104.011 226.058 102.985 227.312 102.515 228.802L67.1523 341.271Z" fill="#21042A"/>
<path d="M189.381 186.977H164.863V115.25H189.381C194.071 115.255 198.568 117.112 201.885 120.413C205.202 123.715 207.068 128.19 207.073 132.859V169.368C207.068 174.036 205.202 178.512 201.885 181.813C198.568 185.114 194.071 186.971 189.381 186.977Z" fill="#2F2E41"/>
<path d="M185.967 148.551C185.149 148.55 184.364 148.226 183.784 147.65C183.205 147.074 182.88 146.292 182.879 145.477V118.836H189.056V145.477C189.055 146.292 188.729 147.074 188.15 147.65C187.571 148.226 186.786 148.55 185.967 148.551Z" fill="#21042A"/>
<path d="M193.395 181.34H175.456C174.422 181.339 173.431 180.93 172.7 180.202C171.969 179.475 171.558 178.488 171.557 177.459V166.778C171.558 165.749 171.969 164.762 172.7 164.035C173.431 163.307 174.422 162.898 175.456 162.896H193.395C194.429 162.898 195.42 163.307 196.151 164.035C196.882 164.762 197.293 165.749 197.294 166.778V177.459C197.293 178.488 196.882 179.475 196.151 180.202C195.42 180.93 194.429 181.339 193.395 181.34Z" fill="#21042A"/>
<path d="M141.088 107.787C140.666 107.787 140.258 107.642 139.931 107.376C139.729 107.212 139.563 107.008 139.444 106.778C139.325 106.547 139.255 106.294 139.238 106.035C138.66 96.8434 140.264 87.6451 143.921 79.185C146.4 73.4741 149.25 69.7943 152.893 67.6042C157.753 64.6828 164.421 64.4494 171.188 66.964C175.056 68.4011 177.845 70.2794 179.715 72.7063C182.21 75.9443 182.993 80.0988 183.467 84.1056C184.182 90.1681 184.35 96.2821 183.969 102.374C183.952 102.689 183.851 102.994 183.676 103.257C183.502 103.52 183.261 103.733 182.977 103.873C182.67 104.022 182.329 104.089 181.988 104.067C181.647 104.044 181.318 103.934 181.033 103.746C180.919 103.671 180.801 103.602 180.679 103.539C180.062 103.231 179.381 103.075 178.691 103.084C178.002 103.093 177.324 103.266 176.716 103.589C176.269 103.852 175.847 104.154 175.454 104.49L173.021 106.451C172.721 106.688 172.355 106.828 171.972 106.852C171.589 106.876 171.209 106.783 170.881 106.586C169.116 105.588 167.144 105.008 165.118 104.892C162.428 104.792 159.735 104.987 157.088 105.472L141.363 107.766C141.272 107.78 141.18 107.787 141.088 107.787Z" fill="#2F2E41"/>
<path d="M138.986 368.828H130.589L126.594 336.589H138.988L138.986 368.828Z" fill="#FFB6B6"/>
<path d="M143.504 384.698H137.545L136.482 379.099L133.758 384.698H117.953C117.196 384.698 116.458 384.457 115.848 384.01C115.238 383.563 114.787 382.934 114.561 382.214C114.336 381.495 114.348 380.722 114.595 380.009C114.842 379.296 115.311 378.681 115.935 378.252L128.555 369.577V363.916L141.83 364.705L143.504 384.698Z" fill="#2F2E41"/>
<path d="M235.632 361.677L227.89 364.917L211.652 336.739L223.078 331.959L235.632 361.677Z" fill="#FFB6B6"/>
<path d="M245.976 374.565L240.483 376.864L237.321 372.112L236.991 378.325L222.422 384.422C221.724 384.714 220.95 384.777 220.213 384.601C219.477 384.424 218.816 384.018 218.328 383.441C217.84 382.865 217.55 382.148 217.5 381.395C217.45 380.643 217.643 379.895 218.051 379.259L226.307 366.393L224.102 361.175L236.646 356.78L245.976 374.565Z" fill="#2F2E41"/>
<path d="M135.064 149.263L132.657 181.352L116.697 229.272L110.287 225.564L118.983 176.828L121.936 148.713L135.064 149.263Z" fill="#FFB6B6"/>
<path d="M112.973 236.261C116.683 236.261 119.69 233.268 119.69 229.575C119.69 225.883 116.683 222.89 112.973 222.89C109.263 222.89 106.256 225.883 106.256 229.575C106.256 233.268 109.263 236.261 112.973 236.261Z" fill="#FFB6B6"/>
<path d="M176.016 186.22V195.072C176.016 195.072 189.781 219.215 184.176 229.576L204.842 285.841C204.842 285.841 232.868 313.735 230.465 333.66L232.067 340.035L213.65 348.005L209.646 342.426L178.418 289.029L151.994 240.414L147.189 297.796C147.189 297.796 150.392 342.426 141.584 347.208L140.784 354.381H122.093V347.563C122.093 347.563 115.16 323.299 119.164 304.969L117.562 227.663C117.562 227.663 124.769 194.987 133.577 189.408L136.78 181.438L176.016 186.22Z" fill="#2F2E41"/>
<path d="M190.725 124.866L173.271 116.732L168.233 107.994L151.291 108.95L146.165 117.279L131.086 120.32L133.302 174.565C132.315 176.266 131.963 178.259 132.309 180.193C132.838 183.593 135.525 180.919 132.838 183.593C130.151 186.267 128.125 184.923 129.474 187.267C130.822 189.61 127.506 193.263 127.506 193.263C127.506 193.263 170.401 215.009 182.519 187.267C182.519 187.267 184.908 179.152 180.872 162.151C176.836 145.15 190.725 124.866 190.725 124.866Z" fill="#EDC2FA"/>
<path d="M136.041 123.774L131.085 120.319C131.085 120.319 124.23 123.12 123.999 128.786C123.768 134.453 119.828 151.409 119.828 151.409L135.476 159.782L136.041 123.774Z" fill="#EDC2FA"/>
<path d="M194.847 151.938L192.441 184.026L165.733 223.924L159.324 220.216L178.767 179.503L181.721 151.388L194.847 151.938Z" fill="#FFB6B6"/>
<path d="M182.561 126.68L190.725 124.866C190.725 124.866 195.644 126.43 196.316 133.784C196.988 141.139 197.551 153.938 197.551 153.938L180.418 166.478L176.164 148.493L182.561 126.68Z" fill="#EDC2FA"/>
<path d="M161.336 230.912C165.046 230.912 168.054 227.919 168.054 224.227C168.054 220.534 165.046 217.541 161.336 217.541C157.627 217.541 154.619 220.534 154.619 224.227C154.619 227.919 157.627 230.912 161.336 230.912Z" fill="#FFB6B6"/>
<path d="M158.229 105.13C166.873 105.13 173.881 98.1558 173.881 89.5524C173.881 80.949 166.873 73.9746 158.229 73.9746C149.585 73.9746 142.578 80.949 142.578 89.5524C142.578 98.1558 149.585 105.13 158.229 105.13Z" fill="#FFB7B7"/>
<path d="M145.481 87.2035H145.48C143.486 87.2026 141.49 87.2 139.491 87.1957C139.253 87.1946 139.017 87.1461 138.798 87.0531C138.579 86.9601 138.381 86.8244 138.215 86.6541C138.052 86.4875 137.925 86.2897 137.841 86.0727C137.756 85.8556 137.717 85.6239 137.726 85.3914C137.873 82.0904 138.821 78.8738 140.488 76.0164C142.155 73.1589 144.492 70.7453 147.3 68.9817C150.252 67.19 153.62 66.1909 157.076 66.0822C160.532 65.9735 163.957 66.7587 167.017 68.3613C170.076 69.9639 172.666 72.329 174.533 75.2256C176.4 78.1221 177.48 81.4511 177.668 84.8874C177.681 85.1195 177.648 85.3519 177.57 85.5711C177.492 85.7902 177.371 85.9918 177.214 86.164C177.057 86.3362 176.867 86.4756 176.656 86.5742C176.444 86.6727 176.215 86.7284 175.982 86.738C169.055 87.0295 161.372 87.1712 151.068 87.1977H151.063C150.713 87.1987 150.37 87.0953 150.079 86.9007C149.788 86.7062 149.562 86.4294 149.43 86.106L149.264 85.7022C149.177 85.4896 149.024 85.31 148.828 85.1893C148.631 85.0686 148.402 85.0129 148.172 85.0303C147.942 85.0477 147.723 85.1373 147.547 85.2862C147.372 85.4351 147.248 85.6356 147.194 85.8589C147.102 86.2423 146.883 86.5837 146.572 86.8278C146.261 87.0718 145.877 87.2043 145.481 87.2035Z" fill="#2F2E41"/>
<path d="M180.515 165.766C176.308 161.826 174.5 156.109 174.471 150.464C174.438 144.017 176.783 137.893 179.815 132.287C181.649 128.897 183.739 125.653 185.83 122.416C186.533 121.327 184.789 120.32 184.09 121.403C177.015 132.355 169.225 145.327 173.787 158.786C174.834 161.977 176.655 164.861 179.09 167.184C180.034 168.068 181.461 166.652 180.515 165.766Z" fill="#21042A"/>
<path d="M67.2597 285.451C63.7937 284.363 60.0895 284.27 56.573 285.184C56.5648 285.188 56.5588 285.186 56.5508 285.19C53.8255 285.895 51.2849 287.176 49.1022 288.947C48.9754 289.049 48.855 289.153 48.7342 289.256C45.9686 291.617 43.9268 294.706 42.8425 298.168L27.8883 345.73C26.7758 349.25 26.6998 353.014 27.6692 356.576C27.7278 356.776 27.7866 356.976 27.8454 357.176C28.5713 359.536 29.7395 361.738 31.2884 363.666C31.2981 363.676 31.3059 363.687 31.3114 363.7C33.7293 366.688 36.9855 368.892 40.6657 370.032L68.8693 378.817L95.4632 294.235L67.2597 285.451Z" fill="#46EB14"/>
<path d="M111.732 225.289L75.4086 340.815C75.2944 341.177 75.253 341.558 75.2868 341.936C75.3207 342.314 75.429 342.682 75.6058 343.019C75.7825 343.355 76.0242 343.654 76.3169 343.897C76.6096 344.141 76.9477 344.325 77.3118 344.438C77.6759 344.551 78.0589 344.592 78.4389 344.558C78.8189 344.524 79.1884 344.416 79.5264 344.24C79.8643 344.064 80.1641 343.823 80.4085 343.531C80.6529 343.24 80.8372 342.903 80.9508 342.541L115.446 232.83C115.913 231.339 115.788 229.726 115.097 228.324C114.406 226.921 113.202 225.835 111.732 225.289Z" fill="#21042A"/>
<path d="M66.4308 385.153C69.3028 385.153 71.6311 382.836 71.6311 379.978C71.6311 377.119 69.3028 374.802 66.4308 374.802C63.5587 374.802 61.2305 377.119 61.2305 379.978C61.2305 382.836 63.5587 385.153 66.4308 385.153Z" fill="#21042A"/>
<path d="M32.5616 374.605C35.4337 374.605 37.7619 372.287 37.7619 369.429C37.7619 366.57 35.4337 364.253 32.5616 364.253C29.6896 364.253 27.3613 366.57 27.3613 369.429C27.3613 372.287 29.6896 374.605 32.5616 374.605Z" fill="#21042A"/>
<path d="M56.5718 285.184C51.1858 301.991 37.0766 345.94 31.3101 363.7C31.3047 363.687 31.2969 363.675 31.2872 363.666C29.7382 361.738 28.57 359.536 27.8441 357.176C27.7855 356.976 27.7268 356.776 27.668 356.576C33.8507 337.278 44.2058 304.73 48.733 289.256C48.8537 289.152 48.9741 289.049 49.1009 288.947C51.2836 287.176 53.8243 285.895 56.5496 285.19C56.5575 285.186 56.5635 285.188 56.5718 285.184Z" fill="#21042A"/>
<path d="M554.127 290.25C544.171 290.25 533.259 289.876 521.39 289.127C460.003 285.247 380.487 271.757 297.491 251.144C214.496 230.531 137.935 205.256 81.9126 179.976C54.6226 167.661 33.6777 156.004 19.6604 145.328C4.81961 134.026 -1.67194 124.174 0.365267 116.048C4.33467 100.216 39.4822 96.7524 68.2684 96.6348L68.2782 98.9371C28.7471 99.0986 5.42579 105.373 2.60997 116.605C-0.976916 130.91 28.2761 153.244 82.8678 177.879C138.767 203.103 215.187 228.33 298.052 248.911C380.916 269.491 460.285 282.957 521.537 286.829C581.355 290.611 617.722 284.575 621.309 270.269C624.287 258.392 604.655 240.895 566.032 221L567.095 218.956C595.159 233.411 627.736 254.144 623.553 270.827C621.516 278.953 611.135 284.614 592.699 287.651C582.19 289.382 569.282 290.25 554.127 290.25Z" fill="#46EB14"/>
<path d="M174.258 293.248C146.809 293.249 121.29 292.311 98.4452 290.419C68.5844 287.946 44.922 283.97 28.1159 278.603C10.3223 272.92 0.882374 265.812 0.0582204 257.477C-1.54791 241.239 30.3873 226.223 57.4605 216.485L58.2466 218.651C21.0683 232.023 1.22088 245.731 2.36013 257.252C3.81115 271.925 38.9026 283.177 98.6368 288.125C159.802 293.19 240.295 291.395 325.289 283.067C410.284 274.742 489.585 260.883 548.583 244.046C606.202 227.603 638.416 209.757 636.965 195.084C635.76 182.902 611.364 172.987 568.27 167.165L568.581 164.884C599.893 169.114 637.575 177.747 639.267 194.858C640.092 203.194 632.225 211.997 615.886 221.023C600.454 229.549 578.024 238.04 549.221 246.259C490.092 263.134 410.645 277.019 325.516 285.359C272.113 290.59 220.462 293.248 174.258 293.248Z" fill="#46EB14"/>
</g>
<defs>
<clipPath id="clip0_1163_2048">
<rect width="679.795" height="451" fill="white"/>
</clipPath>
</defs>
</svg>
