<svg width="48" height="48" viewBox="0 0 48 48" fill="none" xmlns="http://www.w3.org/2000/svg">
<circle cx="24" cy="24" r="24" fill="#E3FADC"/>
<circle cx="24" cy="24" r="18" fill="#46EB14"/>
<path d="M32.2392 15.871L27.2872 15.8711V14.6251C27.2872 14.2798 27.0105 14 26.6688 14C26.3271 14 26.0503 14.2798 26.0503 14.6251V15.8708H21.1027V14.6251C21.1027 14.2798 20.8259 14 20.4842 14C20.1425 14 19.8658 14.2798 19.8658 14.6251V15.8708H14.9225C14.2394 15.8708 13.6855 16.4306 13.6855 17.121V32.7497C13.6855 33.4402 14.2394 34 14.9225 34H32.2392C32.9223 34 33.4761 33.4402 33.4761 32.7497V17.121C33.4761 16.4309 32.9223 15.871 32.2392 15.871ZM32.2392 32.7497H14.9225V17.121H19.8658V17.7509C19.8658 18.0963 20.1425 18.376 20.4842 18.376C20.8259 18.376 21.1027 18.0963 21.1027 17.7509V17.1214H26.0503V17.7512C26.0503 18.0966 26.3271 18.3763 26.6688 18.3763C27.0105 18.3763 27.2872 18.0966 27.2872 17.7512V17.1214H32.2392V32.7497ZM27.91 23.9979H29.1469C29.4883 23.9979 29.7654 23.7179 29.7654 23.3728V22.1225C29.7654 21.7774 29.4883 21.4974 29.1469 21.4974H27.91C27.5686 21.4974 27.2916 21.7774 27.2916 22.1225V23.3728C27.2916 23.7179 27.5686 23.9979 27.91 23.9979ZM27.91 28.9988H29.1469C29.4883 28.9988 29.7654 28.7191 29.7654 28.3737V27.1234C29.7654 26.7783 29.4883 26.4982 29.1469 26.4982H27.91C27.5686 26.4982 27.2916 26.7783 27.2916 27.1234V28.3737C27.2916 28.7194 27.5686 28.9988 27.91 28.9988ZM24.1993 26.4982H22.9624C22.621 26.4982 22.3439 26.7783 22.3439 27.1234V28.3737C22.3439 28.7191 22.621 28.9988 22.9624 28.9988H24.1993C24.5407 28.9988 24.8177 28.7191 24.8177 28.3737V27.1234C24.8177 26.7786 24.5407 26.4982 24.1993 26.4982ZM24.1993 21.4974H22.9624C22.621 21.4974 22.3439 21.7774 22.3439 22.1225V23.3728C22.3439 23.7179 22.621 23.9979 22.9624 23.9979H24.1993C24.5407 23.9979 24.8177 23.7179 24.8177 23.3728V22.1225C24.8177 21.7771 24.5407 21.4974 24.1993 21.4974ZM19.2516 21.4974H18.0147C17.6733 21.4974 17.3963 21.7774 17.3963 22.1225V23.3728C17.3963 23.7179 17.6733 23.9979 18.0147 23.9979H19.2516C19.593 23.9979 19.8701 23.7179 19.8701 23.3728V22.1225C19.8701 21.7771 19.593 21.4974 19.2516 21.4974ZM19.2516 26.4982H18.0147C17.6733 26.4982 17.3963 26.7783 17.3963 27.1234V28.3737C17.3963 28.7191 17.6733 28.9988 18.0147 28.9988H19.2516C19.593 28.9988 19.8701 28.7191 19.8701 28.3737V27.1234C19.8701 26.7786 19.593 26.4982 19.2516 26.4982Z" fill="white"/>
</svg>
