<svg width="48" height="48" viewBox="0 0 48 48" fill="none" xmlns="http://www.w3.org/2000/svg">
<circle cx="24" cy="24" r="24" fill="#E3FADC"/>
<ellipse cx="23.5143" cy="24" rx="18.5143" ry="18" fill="#46EB14"/>
<path d="M15.9899 34.9999C14.2316 34.9999 12.8008 33.5642 12.8008 31.7999C12.8008 30.0356 14.2316 28.5999 15.9899 28.5999C17.7482 28.5999 19.1787 30.0356 19.1787 31.7999C19.1787 33.5642 17.7486 34.9999 15.9899 34.9999ZM15.9899 29.9065C14.9494 29.9065 14.103 30.7559 14.103 31.7999C14.103 32.8439 14.9494 33.6933 15.9899 33.6933C17.0304 33.6933 17.8765 32.8439 17.8765 31.7999C17.8765 30.7559 17.0304 29.9065 15.9899 29.9065Z" fill="white"/>
<path d="M31.1923 19.0934C32.594 19.0934 33.7304 17.9532 33.7304 16.5467C33.7304 15.1402 32.594 14 31.1923 14C29.7906 14 28.6543 15.1402 28.6543 16.5467C28.6543 17.9532 29.7906 19.0934 31.1923 19.0934Z" fill="white"/>
<path d="M28.2849 19.3445L25.4626 20.103L26.2654 20.9086L18.8125 28.3873L19.2728 28.8492L26.7258 21.3705L27.5289 22.1764L28.2849 19.3445Z" fill="white"/>
</svg>
