<svg width="39" height="31" viewBox="0 0 39 31" fill="none" xmlns="http://www.w3.org/2000/svg">
<path d="M38.7498 6.84961V25.188C38.7499 26.6705 38.1834 28.0971 37.1663 29.1758C36.1492 30.2545 34.7584 30.9038 33.2783 30.9907L32.9373 31.0004H5.81247C4.32988 31.0005 2.9033 30.4341 1.82461 29.4169C0.745921 28.3998 0.0966662 27.009 0.00968768 25.529L0 25.188V6.84961L18.2996 19.05L18.5243 19.1779C18.7892 19.3073 19.0801 19.3745 19.3749 19.3745C19.6697 19.3745 19.9606 19.3073 20.2255 19.1779L20.4502 19.05L38.7498 6.84961Z" fill="#46EB14"/>
<path d="M32.9384 0C35.0309 0 36.8657 1.10437 37.8887 2.7648L19.376 15.1066L0.863281 2.7648C1.34907 1.97579 2.0165 1.3144 2.80989 0.8358C3.60328 0.357204 4.49963 0.0752836 5.42413 0.0135624L5.81357 0H32.9384Z" fill="#46EB14"/>
</svg>
