<svg width="48" height="48" viewBox="0 0 48 48" fill="none" xmlns="http://www.w3.org/2000/svg">
<circle cx="24" cy="24" r="24" fill="#E3FADC"/>
<circle cx="24" cy="24" r="18" fill="#46EB14"/>
<path d="M28.3902 14.4C28.3902 13.08 29.4439 12 30.7317 12C32.0195 12 33.0732 13.08 33.0732 14.4C33.0732 15.72 32.0195 16.8 30.7317 16.8C29.4439 16.8 28.3902 15.72 28.3902 14.4ZM33.0732 36V28.8H36L33.0732 19.68C32.722 18.72 31.9024 18 30.8488 18H30.7317C29.678 18 28.8585 18.72 28.5073 19.68L27.4537 22.8C28.7415 23.52 29.561 24.84 29.561 26.52V36H33.0732ZM24.2927 23.4C25.2293 23.4 26.0488 22.56 26.0488 21.6C26.0488 20.64 25.2293 19.8 24.2927 19.8C23.3561 19.8 22.5366 20.64 22.5366 21.6C22.5366 22.56 23.3561 23.4 24.2927 23.4ZM16.0976 16.8C17.3854 16.8 18.439 15.72 18.439 14.4C18.439 13.08 17.3854 12 16.0976 12C14.8098 12 13.7561 13.08 13.7561 14.4C13.7561 15.72 14.8098 16.8 16.0976 16.8ZM18.439 36V27.6H20.1951V20.4C20.1951 19.08 19.1415 18 17.8537 18H14.3415C13.0537 18 12 19.08 12 20.4V27.6H13.7561V36H18.439ZM26.0488 36V31.2H27.2195V26.4C27.2195 25.44 26.4 24.6 25.4634 24.6H23.122C22.1854 24.6 21.3659 25.44 21.3659 26.4V31.2H22.5366V36H26.0488Z" fill="white"/>
</svg>
