<svg width="59" height="59" viewBox="0 0 59 59" fill="none" xmlns="http://www.w3.org/2000/svg">
<circle cx="29.5" cy="29.5" r="29.5" fill="#C6F9B6"/>
<circle cx="29.5006" cy="29.5001" r="24.9615" fill="#46EB14"/>
<path d="M15.8054 19.2886H26.7463C27.3267 19.2886 27.8832 19.5157 28.2936 19.92C28.704 20.3243 28.9345 20.8726 28.9345 21.4443C28.9345 22.0161 28.704 22.5644 28.2936 22.9687C27.8832 23.373 27.3267 23.6001 26.7463 23.6001H15.8054C15.225 23.6001 14.6685 23.373 14.2581 22.9687C13.8477 22.5644 13.6172 22.0161 13.6172 21.4443C13.6172 20.8726 13.8477 20.3243 14.2581 19.92C14.6685 19.5157 15.225 19.2886 15.8054 19.2886ZM31.1227 36.5347H42.0636C42.644 36.5347 43.2005 36.7619 43.6109 37.1661C44.0213 37.5704 44.2518 38.1188 44.2518 38.6905C44.2518 39.2622 44.0213 39.8106 43.6109 40.2149C43.2005 40.6191 42.644 40.8463 42.0636 40.8463H31.1227C30.5423 40.8463 29.9858 40.6191 29.5754 40.2149C29.165 39.8106 28.9345 39.2622 28.9345 38.6905C28.9345 38.1188 29.165 37.5704 29.5754 37.1661C29.9858 36.7619 30.5423 36.5347 31.1227 36.5347ZM15.8054 27.9117H42.0636C42.644 27.9117 43.2005 28.1388 43.6109 28.5431C44.0213 28.9473 44.2518 29.4957 44.2518 30.0674C44.2518 30.6392 44.0213 31.1875 43.6109 31.5918C43.2005 31.9961 42.644 32.2232 42.0636 32.2232H15.8054C15.225 32.2232 14.6685 31.9961 14.2581 31.5918C13.8477 31.1875 13.6172 30.6392 13.6172 30.0674C13.6172 29.4957 13.8477 28.9473 14.2581 28.5431C14.6685 28.1388 15.225 27.9117 15.8054 27.9117Z" fill="white"/>
</svg>
