<svg width="71" height="71" viewBox="0 0 71 71" fill="none" xmlns="http://www.w3.org/2000/svg">
<circle cx="35.5" cy="35.5" r="35.5" fill="#E3FADC"/>
<circle cx="35.5" cy="35.5" r="28.5" fill="#46EB14"/>
<path d="M20 45.9927V25.3677H22.9091V39.1177H34.5455V28.1177H46.1818C47.7818 28.1177 49.1515 28.6562 50.2909 29.7333C51.4303 30.8104 52 32.1052 52 33.6177V45.9927H49.0909V41.8677H22.9091V45.9927H20ZM28.7273 37.7427C27.5152 37.7427 26.4848 37.3416 25.6364 36.5396C24.7879 35.7375 24.3636 34.7635 24.3636 33.6177C24.3636 32.4718 24.7879 31.4979 25.6364 30.6958C26.4848 29.8937 27.5152 29.4927 28.7273 29.4927C29.9394 29.4927 30.9697 29.8937 31.8182 30.6958C32.6667 31.4979 33.0909 32.4718 33.0909 33.6177C33.0909 34.7635 32.6667 35.7375 31.8182 36.5396C30.9697 37.3416 29.9394 37.7427 28.7273 37.7427ZM37.4545 39.1177H49.0909V33.6177C49.0909 32.8614 48.8058 32.2138 48.2356 31.6748C47.6655 31.1358 46.9808 30.8668 46.1818 30.8677H37.4545V39.1177ZM28.7273 34.9927C29.1394 34.9927 29.4851 34.8607 29.7644 34.5967C30.0436 34.3327 30.1828 34.0063 30.1818 33.6177C30.1818 33.2281 30.0422 32.9013 29.7629 32.6373C29.4836 32.3733 29.1384 32.2418 28.7273 32.2427C28.3152 32.2427 27.9695 32.3747 27.6902 32.6387C27.4109 32.9027 27.2718 33.229 27.2727 33.6177C27.2727 34.0073 27.4124 34.3341 27.6916 34.5981C27.9709 34.8621 28.3161 34.9936 28.7273 34.9927ZM28.7273 34.9927C28.3152 34.9927 27.9695 34.8607 27.6902 34.5967C27.4109 34.3327 27.2718 34.0063 27.2727 33.6177C27.2727 33.2281 27.4124 32.9013 27.6916 32.6373C27.9709 32.3733 28.3161 32.2418 28.7273 32.2427C29.1394 32.2427 29.4851 32.3747 29.7644 32.6387C30.0436 32.9027 30.1828 33.229 30.1818 33.6177C30.1818 34.0073 30.0422 34.3341 29.7629 34.5981C29.4836 34.8621 29.1384 34.9936 28.7273 34.9927ZM37.4545 30.8677H46.1818C46.9818 30.8677 47.6669 31.1372 48.2371 31.6762C48.8073 32.2152 49.0919 32.8623 49.0909 33.6177V39.1177H37.4545V30.8677Z" fill="#F8F7F8"/>
</svg>
