<svg width="55" height="78" viewBox="0 0 55 78" fill="none" xmlns="http://www.w3.org/2000/svg">
<path d="M46.091 18.4422H43.6321V7.78321C43.6321 5.18595 41.5198 3.0737 38.9232 3.0737H37.4238V0.614746H38.9232C42.876 0.614746 46.091 3.83045 46.091 7.78321V18.4422Z" fill="#46EB14"/>
<path d="M11.3672 18.4422H8.9082V7.78321C8.9082 3.83045 12.1245 0.614746 16.0767 0.614746H17.576V3.0737H16.0767C13.4794 3.0737 11.3672 5.18656 11.3672 7.78321V18.4422Z" fill="#46EB14"/>
<path d="M33.7721 3.68843H21.229C20.2104 3.68843 19.3848 2.86284 19.3848 1.84421C19.3848 0.825593 20.2104 0 21.229 0H33.7721C34.7907 0 35.6163 0.825593 35.6163 1.84421C35.6163 2.86284 34.7907 3.68843 33.7721 3.68843Z" fill="#46EB14"/>
<path d="M11.4531 72.7449V74.5891C11.4531 75.947 12.5541 77.048 13.9121 77.048C15.27 77.048 16.371 75.947 16.371 74.5891V72.7449H11.4531Z" fill="#46EB14"/>
<path d="M38.625 72.7449V74.5891C38.625 75.947 39.726 77.048 41.084 77.048C42.4419 77.048 43.5429 75.947 43.5429 74.5891V72.7449H38.625Z" fill="#46EB14"/>
<path d="M20.2452 54.47L4.36719 70.348C5.36983 70.8282 6.48803 71.1048 7.67386 71.1048H29.1368L20.2452 54.47Z" fill="#46EB14"/>
<path d="M0 40.2788V60.2381L13.0072 47.2309L0 40.2788Z" fill="#46EB14"/>
<path d="M47.3238 16.0864H7.67502C3.4364 16.0864 0 19.5228 0 23.7614V32.5835L3.09705 32.9979L5.32733 30.7676C6.11665 29.9783 7.39591 29.9783 8.18462 30.7676C8.97394 31.5569 8.97394 32.8362 8.18462 33.6249L8.13791 33.6716L24.3922 35.846L30.4369 29.8012C31.6025 28.6357 32.8971 27.6214 34.2809 26.7822C35.6647 25.9431 37.1382 25.2792 38.6621 24.8139C39.9783 24.4118 41.1801 24.7542 41.9516 25.5263C42.7237 26.2984 43.0661 27.4997 42.6641 28.8158C42.1987 30.3397 41.5348 31.8133 40.6957 33.1971C39.8566 34.5808 38.8422 35.8748 37.6767 37.041L31.632 43.0857L33.8063 59.34L33.853 59.2933C34.6423 58.504 35.9216 58.504 36.7103 59.2933C37.4996 60.0826 37.4996 61.3619 36.7103 62.1506L34.48 64.3809L35.3794 71.1061H47.3244C51.563 71.1061 54.9994 67.6697 54.9994 63.4311V23.762C54.9988 19.5228 51.5624 16.0864 47.3238 16.0864Z" fill="#46EB14"/>
</svg>
