<svg width="93" height="93" viewBox="0 0 93 93" fill="none" xmlns="http://www.w3.org/2000/svg">
<path d="M62.5792 76.5927C79.3802 67.9324 85.8011 47.6297 76.9208 31.2451C68.0405 14.8606 47.2217 8.59878 30.4208 17.259C13.6199 25.9192 7.19891 46.222 16.0792 62.6065C24.9595 78.9911 45.7783 85.2529 62.5792 76.5927Z" fill="#EDC2FA"/>
<path d="M46.4932 74.6583C59.7789 74.6583 70.549 64.1551 70.549 51.1988C70.549 38.2425 59.7789 27.7393 46.4932 27.7393C33.2076 27.7393 22.4375 38.2425 22.4375 51.1988C22.4375 64.1551 33.2076 74.6583 46.4932 74.6583Z" fill="white"/>
<path d="M46.946 81.5081C41.8185 81.4073 36.7285 80.309 32.0741 78.3019C27.416 76.3009 23.1942 73.4075 19.6929 69.8638C16.1947 66.3164 13.4185 62.1179 11.574 57.5715C9.72348 53.0272 8.82079 48.1381 8.91037 43.2862C9.01373 38.4336 10.1086 33.6221 12.1077 29.219C14.1007 24.8137 16.9818 20.819 20.5114 17.5068C24.0441 14.1983 28.2229 11.5738 32.7448 9.83255C37.2644 8.08535 42.1224 7.23565 46.946 7.32301C42.1217 7.42381 37.3433 8.46167 32.9692 10.3537C28.592 12.2398 24.6214 14.9666 21.3306 18.3057C18.043 21.6486 15.4367 25.6014 13.7102 29.8738C11.9775 34.1448 11.1376 38.7308 11.2264 43.2862C11.3306 47.8431 12.3634 52.3515 14.2438 56.4806C16.1189 60.6119 18.83 64.3617 22.1491 67.4685C25.472 70.5724 29.3997 73.0304 33.6399 74.6567C37.8792 76.2889 42.4264 77.0774 46.946 76.9908V81.5081Z" fill="#46EB14"/>
<path d="M30.9824 60.5572L40.2299 42.4983L47.7156 55.5844L51.0423 49.5379L56.5871 57.5974L60.1917 52.3722L64.8698 60.5572H30.9824Z" fill="#EDC2FA"/>
<path d="M52.2559 4.89778L49.8541 5.03666L49.7676 3.618L52.1694 3.47911C52.5231 3.45895 52.8271 3.72179 52.8478 4.06675L52.8577 4.23549C52.8792 4.58045 52.6096 4.87687 52.2559 4.89778Z" fill="#46EB14"/>
<path d="M52.2623 9.43756L49.8605 9.30615L49.7793 10.7248L52.1811 10.8562C52.5348 10.8756 52.838 10.6113 52.8579 10.2664L52.8679 10.0976C52.887 9.75191 52.616 9.45698 52.2623 9.43756Z" fill="#46EB14"/>
<path d="M47.4166 14.2669L52.6245 8.76695C53.4192 8.82146 59.2144 8.36823 59.1822 7.21538C59.1371 5.58391 52.6123 5.57047 52.6123 5.57047L47.3707 0.103377C47.0682 -0.0168364 46.8615 -0.0295312 46.7513 0.0645489C46.5239 0.258682 46.7068 0.910531 47.301 2.01933C48.0467 3.27448 48.7925 4.53038 49.5382 5.78553L44.2001 6.15886L41.3749 4.50572L40.8949 5.09635L41.708 6.40076C40.7417 6.61804 40.1193 6.97943 40.133 7.26988C40.1468 7.56407 40.8129 7.86872 41.7838 8.00461L41.0365 9.38371L41.463 9.90115L44.3334 8.19725C46.0744 8.31671 47.8155 8.43619 49.5558 8.55565C48.8147 9.82126 48.0743 11.0861 47.3331 12.351C46.7467 13.4635 46.5675 14.1161 46.7964 14.3095C46.9082 14.4035 47.1142 14.3886 47.4166 14.2669Z" fill="#46EB14"/>
<path d="M47.3682 0.101245C47.0658 -0.0189685 46.859 -0.03241 46.7488 0.0624168C46.5214 0.25655 46.7044 0.908399 47.2985 2.0172C47.3636 2.12621 47.4287 2.23597 47.493 2.34498L49.6253 2.45623L47.3682 0.101245Z" fill="#46EB14"/>
<path d="M47.4169 14.2671C47.1152 14.3896 46.9085 14.4038 46.7975 14.3104C46.5686 14.1178 46.7477 13.4644 47.3342 12.3519C47.3985 12.2421 47.4628 12.1324 47.5272 12.0226L49.6587 11.8987L47.4169 14.2671Z" fill="#46EB14"/>
<path d="M75.3094 57.0009C73.4159 57.0464 71.9643 58.8847 70.0731 58.9937C68.0572 59.1102 66.4042 57.2346 64.3859 57.1562C61.9022 57.0599 59.9934 59.6732 57.5082 59.6859C54.9027 59.6993 52.7428 56.8359 50.207 57.4227C48.2217 57.8827 47.0502 60.3265 45.0106 60.3758C43.0375 60.4236 41.6915 58.1687 39.7269 57.985C37.6673 57.7931 36.0165 59.9375 33.9478 59.9323C31.5758 59.9263 29.9236 57.1375 27.5524 57.1816C25.2348 57.2241 23.7065 59.9457 21.3928 60.0727C20.3124 60.1317 19.3018 59.6015 18.344 59.1095C17.3862 58.6182 16.3334 58.1373 15.2646 58.3038C15.0617 58.3352 14.8618 58.4024 14.6758 58.4957C18.8547 72.1672 31.8522 82.1673 47.211 82.1673C62.4542 82.1673 75.3744 72.3188 79.6544 58.8063C79.378 58.6928 79.11 58.5614 78.8596 58.4196C77.7357 57.7871 76.6064 56.9695 75.3094 57.0009Z" fill="#46EB14"/>
</svg>
