<svg width="49" height="69" viewBox="0 0 49 69" fill="none" xmlns="http://www.w3.org/2000/svg">
<path d="M41.0661 16.4309H38.8753V6.93462C38.8753 4.62121 36.993 2.73882 34.6795 2.73882H33.3438V0.548096H34.6795C38.2011 0.548096 41.0661 3.41302 41.0661 6.93462V16.4309Z" fill="#46EB14"/>
<path d="M10.1282 16.4304H7.9375V6.93413C7.9375 3.41253 10.8024 0.547607 14.324 0.547607H15.6598V2.73833H14.324C12.0106 2.73833 10.1282 4.62072 10.1282 6.93413V16.4304Z" fill="#46EB14"/>
<path d="M30.0894 3.28609H18.9145C18.007 3.28609 17.2715 2.55055 17.2715 1.64305C17.2715 0.735537 18.007 0 18.9145 0H30.0894C30.9969 0 31.7325 0.735537 31.7325 1.64305C31.7325 2.55055 30.9969 3.28609 30.0894 3.28609Z" fill="#46EB14"/>
<path d="M10.2051 64.8101V66.4531C10.2051 67.6629 11.186 68.6438 12.3958 68.6438C13.6056 68.6438 14.5865 67.6629 14.5865 66.4531V64.8101H10.2051Z" fill="#46EB14"/>
<path d="M34.4141 64.8101V66.4531C34.4141 67.6629 35.395 68.6438 36.6048 68.6438C37.8146 68.6438 38.7955 67.6629 38.7955 66.4531V64.8101H34.4141Z" fill="#46EB14"/>
<path d="M42.1622 14.3315H6.83781C3.06154 14.3315 0 17.3931 0 21.1694V56.5113C0 60.2875 3.06154 63.3491 6.83781 63.3491H15.8247C19.1179 63.3491 21.8618 60.8259 22.1373 57.5436L23.9244 36.2372L19.0785 41.0831L16.7536 39.687L18.1496 42.0119L15.8631 44.2985L13.5381 42.9025L14.9342 45.2274L10.1294 50.0322C7.88881 47.7916 9.1786 42.8943 12.9948 39.078C14.2704 37.8025 15.6664 36.8166 17.0439 36.143L16.4042 33.5815L15.7475 36.2125H12.514L11.8573 33.5815L11.2006 36.2125H4.40555C4.40555 33.0436 8.78044 30.4925 14.1773 30.4925C15.9814 30.4925 17.6649 30.7828 19.1157 31.2807L20.4751 29.0171L18.1502 30.4131L15.8636 28.1266L17.2596 25.8016L14.9347 27.1977L10.1299 22.3929C12.3705 20.1523 17.2679 21.4421 21.0841 25.2583C22.7074 26.8817 23.868 28.7 24.5 30.4268C25.1315 28.7 26.2926 26.8817 27.9159 25.2583C31.7321 21.4421 36.6295 20.1523 38.8701 22.3929L34.0653 27.1977L31.7404 25.8016L33.1364 28.1266L30.8498 30.4131L28.5249 29.0171L29.8843 31.2807C31.3345 30.7828 33.0186 30.4925 34.8227 30.4925C40.2196 30.4925 44.5945 33.0436 44.5945 36.2125H37.7994L37.1427 33.5815L36.486 36.2125H33.2525L32.5958 33.5815L31.9561 36.143C33.3336 36.8166 34.7296 37.8025 36.0052 39.078C39.8214 42.8943 41.1112 47.7916 38.8706 50.0322L34.0658 45.2274L35.4619 42.9025L33.1369 44.2985L30.8504 42.0119L32.2464 39.687L29.9215 41.0831L25.0756 36.2372L26.8627 57.5436C27.1382 60.8254 29.8821 63.3491 33.1753 63.3491H42.1622C45.9385 63.3491 49 60.2875 49 56.5113V21.1694C49 17.3931 45.9385 14.3315 42.1622 14.3315Z" fill="#46EB14"/>
</svg>
