<svg width="68" height="64" viewBox="0 0 68 64" fill="none" xmlns="http://www.w3.org/2000/svg">
<path d="M29.3704 48.6555H27.5176V62.7686H29.3704V48.6555Z" fill="#46EB14"/>
<path d="M37.1754 63.0508V63.4959C37.1754 63.1678 36.9923 62.8633 36.6921 62.6903L28.9031 61.2111C28.5687 61.0187 28.1443 61.0201 27.8114 61.2154L20.1846 62.6889C19.8882 62.8633 19.709 63.1656 19.709 63.4902V63.0508C19.709 63.5749 20.1683 64 20.7347 64H36.1513C36.7161 64 37.1754 63.5749 37.1754 63.0508Z" fill="#46EB14"/>
<path d="M27.8057 54.7229C43.1624 54.7229 55.6115 43.2018 55.6115 28.9898C55.6115 14.7777 43.1624 3.25659 27.8057 3.25659C12.449 3.25659 0 14.7777 0 28.9898C0 43.2018 12.449 54.7229 27.8057 54.7229Z" fill="#EDC2FA"/>
<mask id="mask0_925_896" style="mask-type:luminance" maskUnits="userSpaceOnUse" x="0" y="3" width="56" height="52">
<path d="M27.8057 54.7229C43.1624 54.7229 55.6115 43.2018 55.6115 28.9898C55.6115 14.7777 43.1624 3.25659 27.8057 3.25659C12.449 3.25659 0 14.7777 0 28.9898C0 43.2018 12.449 54.7229 27.8057 54.7229Z" fill="white"/>
</mask>
<g mask="url(#mask0_925_896)">
<path d="M-17.7661 12.6918C-17.8242 13.5255 -16.4478 13.361 -17.1197 14.0367C-17.6411 14.5609 -18.1137 13.9599 -18.2215 14.8811C-18.4341 16.7057 -15.4834 15.872 -14.637 15.9632C-15.3779 16.5592 -16.5906 16.2684 -17.2354 16.9031C-16.7272 17.1509 -15.8675 16.8407 -15.3166 16.6511C-14.3701 16.3258 -14.7689 16.1607 -14.18 15.5647C-13.342 14.7153 -11.286 15.6444 -10.3976 16.1435C-9.68533 16.5441 -9.30673 17.0109 -8.57818 17.4568C-8.29499 17.6298 -8.17393 17.8689 -7.85272 18.0211C-7.39728 18.2366 -6.7153 18.0477 -6.38865 18.5467C-5.90917 19.2799 -6.75797 20.6958 -6.46625 21.6207C-6.23892 22.3437 -5.5802 22.8938 -5.12166 23.4488C-4.53898 24.1539 -4.22166 24.5438 -3.91596 25.3236C-3.73751 25.7796 -3.51172 26.5486 -2.85378 26.4057C-2.97559 25.8313 -3.12844 24.9761 -3.63275 24.5546C-3.06637 24.7312 -2.44179 25.259 -2.11127 25.7128C-1.76523 26.1889 -1.9817 26.713 -1.72721 27.1115C-0.924961 28.3695 0.491775 27.8928 1.61602 28.3889C2.50284 28.7803 3.03198 29.9162 3.83578 30.4109C4.85062 31.0349 5.48453 29.9758 5.71108 31.3042C5.86548 32.2068 5.4046 32.634 5.02365 33.4066C4.49761 34.4736 4.90106 35.4695 5.59547 36.2594C5.94771 36.6601 6.53815 36.994 6.84229 37.4707C6.96333 37.661 6.78643 37.9475 6.90591 38.1134C7.09057 38.369 7.4273 38.415 7.61816 38.6462C8.5205 39.7376 7.50024 42.2328 7.34895 43.5174C7.23256 44.5061 7.0805 45.1523 6.70498 46.0319C6.36825 46.8203 6.41635 47.5872 6.67394 48.385C7.17205 49.9259 7.70352 50.2547 9.53225 50.1664C8.90612 49.8613 8.228 49.2588 8.61826 48.5853C8.74163 48.3727 9.37785 48.288 9.42208 48.0259C9.52992 47.3869 8.63845 47.8227 8.52284 47.3898C8.44215 47.0867 9.25525 46.7536 9.4275 46.5453C9.63 46.3005 9.63234 45.7325 9.89381 45.5516C10.7155 44.9843 11.6543 45.8948 12.0771 44.5413C10.5323 44.4135 12.3921 43.6258 12.6466 43.3493C12.9298 43.0413 13.1967 42.6212 13.4372 42.2996C13.6715 41.9879 13.777 41.5995 13.9896 41.3245C14.3776 40.8225 14.5747 40.8979 15.276 40.7349C16.2676 40.5045 16.0527 40.5418 16.2847 39.8094C16.4686 39.2299 16.5632 38.6174 16.7223 38.0531C16.9054 37.4039 16.9457 37.4994 17.4283 36.925C18.6612 35.4595 16.9705 34.8829 15.7858 34.3652C15.0347 34.037 14.4963 33.7886 13.6948 33.5366C12.8359 33.2666 12.9919 33.0332 12.4573 32.5019C11.9227 31.9698 11.2252 31.9691 10.5898 31.6797C10.0389 31.4284 9.71226 30.91 9.17535 30.6249C8.62371 30.332 8.43982 30.5172 7.91378 30.5064C7.40481 30.4964 6.99281 30.2479 6.48771 30.207C5.55201 30.1309 4.23536 30.8633 3.58828 29.8789C3.43698 29.6484 3.565 29.2413 3.42457 29.0294C3.29422 28.8334 3.00251 28.8485 2.87837 28.7042C2.49199 28.2539 2.36475 28.4464 2.44078 27.8562C2.48035 27.5503 2.96992 27.4454 2.88147 27.0203C2.25845 26.988 1.54775 27.1446 1.04964 26.7001C0.185321 25.9289 1.04885 25.2138 1.91007 24.8964C2.40197 24.7147 3.70777 24.2387 4.20821 24.4332C4.69391 24.6221 4.62254 25.4119 5.07254 25.4069C5.2828 25.007 5.31149 24.2092 5.54813 23.8114C5.89883 23.2212 6.57385 23.1638 6.80118 22.5261C6.95558 22.0939 6.76084 21.7801 7.04947 21.3414C7.28766 20.9802 7.74464 20.9349 7.98827 20.6068C8.21715 20.2988 8.05654 19.8995 8.36534 19.6741C8.52439 19.557 9.35924 19.603 9.61062 19.608C9.50743 19.7918 9.2832 20.0223 9.07527 20.1717C9.70062 20.288 10.4804 19.7581 10.9738 19.4946C10.9288 19.3919 10.9498 19.2102 10.911 19.1025C11.6799 18.9797 12.1043 19.58 12.794 19.4141C13.0237 18.7902 12.4565 18.7765 12.1687 18.3981C11.8855 18.0247 11.8521 17.4467 11.5402 17.1537C11.2865 16.9154 10.9374 16.9728 10.71 16.8206C10.3547 16.5829 10.2243 16.2655 9.96209 15.9338C9.67037 15.5633 8.88441 14.6578 8.60122 15.7177C7.71051 15.6595 7.47853 14.362 6.38377 14.535C5.43798 14.6851 5.98107 15.0786 5.98961 15.6351C5.99814 16.2088 5.25331 17.3038 5.60944 17.7267C4.85917 18.1324 4.63726 17.2514 4.15699 16.9505C3.5425 16.5657 2.66654 16.4845 1.99308 16.0494C1.28394 15.5913 1.03723 15.5791 1.95276 14.7368C2.17466 14.5322 2.81862 14.0008 3.14759 13.9757C3.77915 13.9276 4.08641 14.5544 4.71487 14.1961C4.58607 13.6468 3.84821 13.8615 3.83502 13.2404C4.20512 13.1047 4.58762 13.0063 4.98254 12.9439C5.11134 12.6466 5.04926 12.3881 4.54727 12.2725C5.1509 12.098 6.71507 11.8927 7.21628 12.4678C7.87655 13.2246 6.20298 13.3912 5.90117 13.7904C6.44583 14.1337 7.04325 13.644 7.57239 13.8242C7.98438 13.9649 7.90834 14.4683 8.70516 14.3879C8.70826 14.4891 8.73854 14.609 8.74165 14.6988C10.1033 15.0312 9.3763 14.0238 9.43526 13.8062C9.52527 13.4759 10.004 13.3804 10.0629 13.0214C9.43603 12.8498 8.43128 13.0343 8.52516 12.116C7.60498 11.856 6.72048 11.6729 5.80262 11.3455C5.17184 11.12 5.21452 11.115 4.46348 11.1674C4.12365 11.1911 3.59295 11.1279 3.347 11.1732C1.32818 11.5466 4.16244 12.1756 3.6201 12.7816C3.40751 13.0185 2.13896 12.6581 1.99853 12.4269C1.67266 11.8927 2.21888 11.6607 2.33603 11.1897C0.868081 10.626 1.25679 12.4908 0.12479 12.9108C-0.495133 13.1413 -1.26556 12.6624 -1.90333 12.6796C-2.27885 12.6904 -2.62879 12.8778 -2.98647 12.8469C-3.73053 12.7823 -4.36673 12.4147 -5.14105 12.3515C-5.51735 12.3206 -5.92546 12.2811 -6.29866 12.2725C-7.64402 12.2423 -9.14145 12.0887 -10.3883 12.3034C-11.5575 12.5051 -12.4506 12.1921 -13.6136 12.0039C-14.6641 11.8345 -15.8473 12.1318 -16.9095 12.177C-17.3292 12.1949 -17.9701 11.9163 -17.7637 12.6401C-17.5822 12.4376 -17.8258 12.9597 -17.7661 12.6918Z" fill="#46EB14"/>
<path d="M8.80483 9.40753C8.50146 9.67033 8.05764 9.7206 7.63867 9.76296C8.45101 10.7029 11.1301 9.51452 12.1527 10.5011C12.5585 10.8924 12.2241 11.2515 12.3498 11.6852C12.4654 12.0858 12.8735 12.4061 13.1016 12.7737C11.4762 13.6677 14.2274 14.7311 14.8947 15.0111C15.2547 15.1619 15.4975 15.5425 15.9025 15.3838C16.6916 15.0743 15.8917 14.0999 16.4371 13.6533C16.884 13.2871 18.5443 13.4357 19.1208 13.2361C19.8137 12.9956 19.6616 12.6251 20.0907 12.2926C20.7758 11.7627 22.6286 11.4331 21.0884 10.2721C21.6285 10.0121 22.4516 9.47646 22.5509 8.89772C21.9419 8.678 21.2599 8.74047 20.6377 8.51357C20.4949 8.46115 20.4196 8.21343 20.1349 8.15239C19.7477 8.06982 19.3187 8.33837 18.9579 8.38073C18.0649 8.48556 13.2126 8.00807 13.2754 8.88982C12.4545 8.90275 11.4521 8.81945 10.6568 9.00112C10.31 9.0801 10.1649 9.30844 9.80415 9.39101C9.37897 9.48795 8.59612 9.57771 8.80483 9.40753Z" fill="#46EB14"/>
<path d="M30.0075 22.7136C29.13 23.6241 31.4716 23.6729 32.0116 23.8948C32.4042 24.0564 33.3461 24.8534 33.1149 23.8209C33.6642 23.7605 35.112 24.0628 35.396 24.3098C35.6287 24.5123 35.8871 25.1909 36.0694 25.4515C36.3472 25.8472 36.573 26.105 36.7429 26.5896C37.1464 27.7414 37.9152 28.6483 38.7516 29.3663C39.0604 29.6313 39.3925 30.1109 39.7362 30.21C40.2615 30.3615 40.9606 29.8424 41.5533 29.8847C41.5688 30.368 41.042 30.4893 40.786 30.8505C40.5354 31.2045 40.4555 31.8572 40.2413 32.2679C39.7347 33.2394 38.5623 34.0056 38.3761 35.0044C38.1457 36.2408 39.5865 37.315 38.1969 38.293C37.324 38.9069 37.0944 38.7647 37.0129 39.905C36.971 40.4924 37.0618 40.6439 36.6327 41.056C36.1455 41.5256 36.0819 40.9009 36.0051 41.5752C35.9554 42.0081 36.5559 42.1647 36.0206 42.742C35.5217 43.2812 34.3082 43.185 33.6301 43.5455C33.2755 43.7336 32.7192 44.4394 32.1792 44.1924C31.5135 43.8887 32.2941 43.8083 32.2894 43.4306C32.2801 42.6213 31.4522 42.1747 31.325 41.3195C31.2466 40.7968 31.3785 40.6877 31.1031 40.2245C30.8502 39.8009 30.5933 39.8045 30.4645 39.2386C30.2 38.0783 31.0736 37.4005 30.8432 36.2645C30.7842 35.9737 30.7757 35.3885 30.6461 35.1523C30.4071 34.7164 29.6126 34.7107 29.4606 34.2892C29.1091 33.317 30.5266 32.6485 29.1944 31.8816C29.3527 31.9728 28.0787 31.5477 28.2773 31.5635C27.8599 31.5312 27.6598 31.8091 27.3137 31.8924C26.7388 32.0309 26.3408 31.799 25.814 31.7804C25.3981 31.766 25.0707 31.8723 24.6532 31.7883C23.8712 31.6303 23.2024 30.9101 22.906 30.2868C22.487 29.4065 22.951 28.6303 22.6926 27.6789C22.4754 26.8812 22.404 26.8187 23.0604 26.1229C23.5647 25.5887 23.9387 25.0774 24.3848 24.5382C24.5485 24.3407 24.8333 24.4944 24.9923 24.205C25.1172 23.9781 24.8457 23.4834 24.9884 23.2981C25.2328 22.9822 25.8528 23.3017 26.0017 22.8759C26.205 22.2972 25.3236 22.3898 25.0637 22.1047C24.7813 21.7953 24.6843 20.943 24.9039 20.6924C25.2918 20.25 26.6829 20.6162 26.9079 19.9348C27.0732 19.4351 26.0886 19.1364 25.9288 18.7378C26.1965 18.3788 27.0298 18.3271 27.4542 18.1318C28.2851 17.7505 28.8088 17.0734 29.8136 17.1452C29.7771 16.8465 29.5048 15.9633 30.2116 16.2649C30.5382 16.4042 30.3784 16.9169 30.7392 17.077C31.1395 17.2544 32.0085 16.8501 32.3809 16.7776C33.3283 16.5931 33.3205 16.3913 33.8683 15.9813C34.2423 15.7012 35.2656 15.0335 35.8289 15.1326C35.195 14.8856 32.8247 15.5871 32.9109 14.4799C32.9628 13.8106 34.2368 13.993 34.2632 13.28C34.2904 12.5584 33.5013 12.9203 33.1436 13.1615C32.862 13.3511 32.7378 13.741 32.5563 13.9133C32.4128 14.0498 31.8076 14.3284 31.7409 14.5071C31.6066 14.8705 32.1047 15.101 31.9643 15.5146C31.9046 15.6919 31.2668 16.178 30.9991 16.2204C30.8152 15.017 30.4607 15.4614 29.6002 15.5368C28.1579 15.6632 29.587 14.925 28.6133 14.4619C29.0509 14.1251 29.7212 14.1295 30.148 13.8207C30.4653 13.5916 30.5305 13.1996 30.8292 12.982C31.1582 12.7422 31.8479 12.6453 32.2266 12.5009C32.7006 12.3207 33.1072 12.1154 33.6161 12.0163C35.1019 11.7283 37.6297 12.269 38.6655 13.2779C38.0417 14.0332 37.307 13.0194 36.6894 13.2757C36.1036 13.5191 36.9571 13.9837 37.1293 14.2881C37.4063 14.2149 37.7849 13.9047 38.0363 13.8746C38.3249 13.8394 38.4483 14.2465 38.7679 14.0964C39.287 13.8537 39.0674 13.4157 39.7921 13.1637C40.4578 12.9318 41.3601 12.6194 42.0646 12.5397C42.6147 12.4772 43.1128 12.6934 43.6497 12.5986C43.614 12.4859 43.6249 12.3638 43.5776 12.2618C44.6459 12.1929 45.3373 12.702 46.1954 12.8549C45.8897 12.0658 45.8229 11.5553 47.0349 11.3427C47.1303 11.6177 46.8269 11.8971 46.8836 12.1017C46.8836 12.1017 47.1062 12.5921 47.1156 12.5232C47.0667 12.8801 47.5089 13.1845 46.6632 13.2111C46.6446 13.3856 46.6818 13.4251 46.7431 13.5557C47.5143 13.3511 47.7789 13.117 48.0117 12.4701C48.1056 12.2087 47.6493 12.185 47.9667 11.887C48.3888 11.4914 49.3547 12.1082 49.2864 11.2106C50.8358 10.769 52.6274 10.7841 54.034 10.3676C55.0108 10.0783 57.6635 9.62446 58.5798 10.438C57.9242 10.7604 56.7022 10.601 56.3329 11.2609C56.8248 11.3987 57.1375 11.179 57.6348 11.095C58.3804 10.9694 58.9988 11.0807 59.7491 11.2429C60.6444 11.4368 61.0301 11.0663 61.8494 11.1309C62.8347 11.2092 62.4251 12.0694 63.4003 12.0881C63.6153 12.0924 63.8403 11.7965 64.0668 11.7585C64.5711 11.6745 65.098 11.8734 65.5782 11.7815C65.6062 11.2436 68.0362 11.4885 68.7275 11.5883C69.8618 11.7513 70.8379 12.1347 71.8791 12.3803C72.1956 12.455 72.4509 12.3344 72.7403 12.3688C72.8047 12.3767 73.8754 12.674 73.7776 12.6883C74.3037 12.6094 74.2432 12.2819 74.9252 12.2884C76.2162 12.3006 77.6299 13.3317 78.8782 13.3719C78.6843 13.7611 78.1621 13.6836 78.0488 14.1223C77.1527 13.8315 76.3892 13.4595 75.5552 14.034C75.7127 14.1266 75.8539 14.3829 75.9935 14.4677C75.5862 14.5718 75.0113 14.4274 74.6311 14.5933C74.2424 14.7628 74.3432 15.1598 73.6931 15.3157C72.9133 15.5024 71.7705 15.0629 71.2118 15.8075C71.3228 15.8958 71.3926 16.0825 71.5113 16.1744C71.1661 16.881 70.332 17.505 69.5825 17.8985C69.217 17.6723 69.1604 16.5148 69.4002 16.2211C69.5972 15.9798 70.4996 15.5907 70.8146 15.3207C71.0784 15.0945 71.3523 14.7513 71.5649 14.5201C70.6951 14.2616 70.1722 14.9897 69.4273 15.2223C68.774 15.4262 68.2651 15.2324 67.5908 15.3099C66.6202 15.4219 64.6813 15.7881 64.0637 16.5665C64.904 17.0713 65.5588 16.8078 66.2416 17.6328C65.918 18.2051 65.198 18.8484 64.7713 19.3855C64.3128 19.9621 63.8612 20.632 63.09 20.8489C62.453 21.0277 62.2381 20.7038 62.0278 21.3206C61.8788 21.7558 62.3669 22.4336 62.5717 22.7259C62.311 22.9204 62.3452 22.8838 62.0542 22.8472C62.1334 22.6634 62.0612 22.3963 62.1768 22.1923C61.2977 21.7034 59.8476 20.6916 59.1827 22.1608C59.4752 22.2965 59.8911 22.3281 60.1719 22.3754C59.4465 22.8845 59.9268 23.0554 60.0587 23.6126C60.2309 24.34 60.085 24.648 59.6001 25.3295C59.1361 25.9807 58.7606 26.301 57.9607 26.6162C57.2585 26.8934 56.2452 26.9264 55.8154 27.5755C56.3934 28.1614 57.2159 28.1751 57.0739 29.1947C56.9839 29.8388 56.3508 30.4304 55.8348 30.844C55.3669 29.7311 54.0177 29.4079 53.269 28.7064C53.127 28.5729 53.2845 28.2806 53.1867 28.1248C53.0572 27.9187 52.7142 27.7012 52.5591 27.5317C52.3387 27.2912 52.1595 26.7857 51.808 26.6744C51.2222 26.4898 50.9522 26.8632 50.6365 27.3242C50.5441 27.4592 50.6908 27.7428 50.5736 27.9058C50.4176 28.1226 50.0491 28.1851 49.8582 28.3855C49.2042 29.0705 49.482 30.3134 48.426 30.6344C47.7556 30.0369 47.2684 27.3989 47.2971 26.5437C46.5383 27.2603 46.3536 26.7153 45.7477 26.3462C45.2542 26.0454 45.9921 26.1803 45.293 25.9233C44.9982 25.8149 44.5877 25.9621 44.2797 25.9262C43.4371 25.8264 42.5332 25.4566 41.8093 25.0537C41.35 24.7981 41.1755 24.0966 40.4741 24.6215C41.1002 25.178 41.7271 26.9759 42.7792 25.7093C43.5023 26.6858 43.9298 26.7009 42.6395 27.5626C41.5929 28.2612 40.6735 28.5779 39.4825 29.0231C39.0255 28.6317 39.0759 28.0092 38.6958 27.592C38.4824 27.3579 38.0433 27.2818 37.7927 27.0154C37.4047 26.6026 37.4396 26.1344 37.1883 25.6813C36.8531 25.0767 35.9081 24.7306 35.9205 23.9774C37.4451 24.0212 36.8298 23.171 36.9113 22.1392C36.3061 21.9891 35.9057 22.2132 35.3735 22.1902C34.5472 22.1536 34.721 21.9913 34.3726 21.5353C34.2314 21.3508 33.9366 20.4734 33.3904 21.0471C32.9078 21.554 33.8543 21.6481 33.8691 21.8678C33.8877 22.1514 33.4819 22.5851 33.0909 22.4623C32.7215 22.346 32.7829 21.4528 32.5943 21.0722C32.3747 20.6292 30.4568 19.048 30.0952 20.0224C30.7035 20.5796 31.9852 20.9975 31.7222 21.9425C31.4864 22.0645 31.2086 22.1607 31.0038 22.285C30.6104 21.8857 31.1907 21.6359 30.7757 21.0729C30.4133 20.5811 29.8966 20.2292 29.3201 20.2701C29.1487 20.2824 28.6754 20.5351 28.4969 20.6127C28.3619 20.6715 28.0966 20.5294 27.9717 20.6119C27.8351 20.7024 27.8941 20.9853 27.8235 21.0349C27.3308 21.3766 26.0351 21.633 26.288 22.4523C26.6876 23.087 28.943 22.7136 30.0075 22.7136Z" fill="#46EB14"/>
<path d="M52.5937 33.0356C52.3648 33.2941 52.1405 33.6043 52.1235 33.9468C51.6362 34.1378 51.3887 33.6078 50.9496 33.9597C50.7269 34.1385 50.9247 34.7452 50.4678 35.0583C49.8471 35.4834 48.4187 35.4259 48.0176 36.2122C47.7026 36.8283 48.227 36.648 48.3217 37.1571C48.3861 37.5075 48.2527 38.1057 48.2992 38.53C48.3551 39.0348 48.1727 39.5259 48.5436 39.8562C49.2791 40.5118 49.5049 39.7356 49.9526 39.4412C50.6602 38.9752 53.8428 38.5214 53.8777 39.671C54.649 39.8878 55.6118 39.7866 55.4225 40.85C55.9509 41.0819 57.2186 40.8622 57.5926 40.4436C57.6873 40.3373 57.5251 40.0932 57.6019 39.9754C57.7773 39.7062 57.948 39.5726 58.1574 39.3091C58.5128 38.8603 58.9861 38.4108 58.8891 37.7639C58.7262 36.6846 57.0138 35.7914 56.494 34.845C56.2907 34.4745 56.3698 34.0932 56.1704 33.7069C55.9687 33.3156 55.5924 33.2388 55.4931 32.7878C54.514 33.1497 55.8197 34.0064 55.4877 34.5794C55.2789 34.9398 53.9126 34.5104 53.7396 34.1722C53.5278 33.7586 54.4651 33.5763 53.8312 33.1533C53.4828 32.9214 52.7807 33.2819 52.5937 33.0356Z" fill="#46EB14"/>
<path d="M20.6656 54.6211C20.5368 53.8744 21.0745 52.8002 21.7883 52.4541C22.4276 52.1446 23.2081 52.2695 23.9119 52.2695C25.244 52.2695 26.9649 52.5345 28.2459 52.2308C28.3824 51.4905 28.6369 51.3059 29.2755 50.8299C29.4159 50.725 29.8077 50.4098 29.98 50.4156C30.4664 50.4314 30.3361 50.8866 30.5665 51.0733C31.6163 51.9278 32.3534 49.4412 33.2518 49.154C33.573 49.0513 33.8989 49.1159 34.2186 49.006C34.4125 48.9393 34.6647 48.7188 34.8432 48.6714C36.0504 48.349 35.4514 49.1173 35.1333 49.6501C34.8439 50.1362 34.3753 51.0316 35.3389 50.9814C35.7315 50.9613 36.0582 50.7164 36.474 50.6956C36.8472 50.6769 37.2274 50.7078 37.6022 50.7028C38.3028 50.6934 38.7248 50.9361 39.441 50.9598C40.0136 50.9792 40.5357 51.2435 40.8585 51.7368C41.5638 52.8124 39.1989 53.3222 38.4494 53.5764C37.1273 54.0244 35.8743 54.7841 34.4971 55.085C32.8266 55.4497 31.1601 55.4045 29.4082 55.4045C28.519 55.4045 27.453 55.5553 26.5925 55.3463C25.8787 55.1726 19.716 55.0491 20.6656 54.6211Z" fill="#46EB14"/>
<path d="M33.933 3.41409C34.7663 3.4105 34.9898 3.60079 34.5747 4.26928C34.2271 4.83007 34.1619 4.78125 34.4545 5.43754C34.02 5.9933 32.9764 5.58833 32.3798 5.38368C32.0841 5.28244 31.593 4.83151 31.2617 4.98229C30.9397 5.12949 31.1554 5.61346 31.1228 5.89565C31.0235 6.74653 30.2321 7.05887 29.523 6.5584C29.2413 6.3595 29.0924 6.09814 28.8627 5.8619C28.474 5.46195 28.4647 5.53806 28.0046 5.63284C27.6314 5.70968 27.3133 5.77573 26.8773 5.7664C26.3373 5.75419 26.3388 5.81163 25.9664 6.02705C25.2084 6.46577 24.6505 6.20081 24.1159 5.51867C23.9041 5.24869 23.9189 4.75755 23.5022 4.68862C23.2043 4.63907 22.717 4.98732 22.3594 4.99307C21.2274 5.01173 21.2406 4.22548 21.2305 3.41409C21.7387 2.99117 21.9792 3.16637 22.6286 3.15273C23.3579 3.13765 23.9259 2.95885 24.6319 2.87772C25.663 2.75924 26.8222 2.37939 27.865 2.37939C28.9 2.37939 29.935 2.89136 30.97 2.89136C31.472 2.89136 32.0329 2.82602 32.5295 2.88562C33.0819 2.95167 33.3217 3.41697 33.933 3.41409Z" fill="#46EB14"/>
</g>
<path d="M1.66272 40.3205C1.47884 41.5175 1.47572 42.751 1.66116 43.9595C1.84116 45.1673 2.20117 46.3312 2.71557 47.4513C3.75447 49.6873 5.44277 51.6138 7.40495 53.1016C9.36636 54.6066 11.59 55.7009 13.8625 56.5525C16.1413 57.4034 18.5069 57.9592 20.8803 58.3426C23.2591 58.7074 25.6589 58.8732 28.047 58.8352C30.4328 58.7871 32.8179 58.5645 35.116 58.0231L35.071 57.728C30.3964 57.8249 25.7885 57.2612 21.3908 56.1691C17.0188 55.0726 12.7833 53.3773 9.5386 50.7701C7.92944 49.4683 6.59728 47.9425 5.73683 46.2084C5.30933 45.346 4.9718 44.4241 4.79801 43.4892C4.77473 43.3765 4.76077 43.263 4.74215 43.1496C3.87007 41.5864 3.09265 39.9241 2.12048 38.3782C1.92341 39.0101 1.76513 39.657 1.66272 40.3205Z" fill="#46EB14"/>
<path d="M32.9337 14.4264C28.6959 16.3099 24.5333 18.3577 20.5042 20.649C16.4914 22.9568 12.5802 25.4893 9.10898 28.5912C7.38422 30.148 5.76108 31.8447 4.4196 33.7827C3.44821 35.175 2.63665 36.7202 2.11914 38.3767C3.09131 39.9234 3.86951 41.5849 4.74081 43.1481C4.60426 42.3267 4.57167 41.4916 4.65702 40.6543C4.84711 38.7465 5.61911 36.8509 6.7449 35.1053C7.30353 34.2293 7.93973 33.3834 8.6287 32.5656C9.32621 31.7528 10.0788 30.9723 10.864 30.2133C14.0296 27.1903 17.7437 24.6011 21.5936 22.2251C25.459 19.8555 29.5098 17.7222 33.6304 15.7067C37.7503 13.6861 41.9563 11.802 46.2081 10.0026C46.3113 9.95878 46.416 9.91641 46.5192 9.87261C46.2391 9.66079 45.9606 9.45041 45.6844 9.24146C41.3899 10.8628 37.1289 12.5703 32.9337 14.4264Z" fill="white"/>
<path d="M58.9251 4.46948C54.4995 6.01471 50.0754 7.58363 45.6855 9.24159C45.9625 9.45054 46.2403 9.66092 46.5204 9.87275C50.6705 8.12072 54.8665 6.45487 59.0484 4.74449L58.9251 4.46948Z" fill="#46EB14"/>
<path d="M62.0911 2.06253L60.3492 2.7698L59.8984 1.81911L61.6403 1.11184C61.8653 1.02065 62.1275 1.11543 62.2268 1.32366L62.3199 1.5204C62.4185 1.72792 62.3161 1.97134 62.0911 2.06253Z" fill="#46EB14"/>
<path d="M63.3433 5.1772L61.5254 5.69419L61.8552 6.68652L63.673 6.16953C63.9081 6.10275 64.04 5.87226 63.9678 5.6547L63.8996 5.45005C63.8266 5.23249 63.5776 5.11042 63.3433 5.1772Z" fill="#46EB14"/>
<path d="M61.1185 9.69941L63.3732 4.64152C63.9621 4.48212 68.0238 2.73943 67.6847 1.95677C67.2052 0.849545 62.4887 2.45365 62.4887 2.45365L57.205 0.0022562C56.9536 -0.00492421 56.8008 0.036724 56.7472 0.128633C56.6363 0.318196 56.9466 0.719583 57.6798 1.33279C58.5628 2.00919 59.4449 2.68486 60.3279 3.36126L56.5742 4.93664L54.0806 4.50222L53.9238 4.94741L54.8409 5.71858C54.2024 6.10633 53.8517 6.50843 53.9417 6.70374C54.0325 6.90192 54.5973 6.94644 55.3351 6.79924L55.2102 7.95026L55.623 8.17931L57.2298 6.30164C58.5201 5.95267 59.8104 5.60442 61.1007 5.25617C60.9121 6.30666 60.7236 7.35716 60.535 8.40765C60.4156 9.31526 60.4652 9.80712 60.6832 9.88251C60.7888 9.91913 60.9338 9.85809 61.1185 9.69941Z" fill="#46EB14"/>
<path d="M57.2023 0.000931207C56.9509 -0.00696725 56.7981 0.035399 56.7446 0.127308C56.6336 0.316871 56.944 0.718252 57.6772 1.33146C57.754 1.39034 57.8308 1.44922 57.9076 1.5081L59.4788 1.05717L57.2023 0.000931207Z" fill="#46EB14"/>
<path d="M61.1195 9.69956C60.9348 9.85753 60.7897 9.91857 60.6842 9.88195C60.4662 9.80655 60.4165 9.31469 60.536 8.40709C60.5523 8.3159 60.5686 8.2247 60.5849 8.13423L62.0908 7.52246L61.1195 9.69956Z" fill="#46EB14"/>
</svg>
