<svg width="67" height="55" viewBox="0 0 67 55" fill="none" xmlns="http://www.w3.org/2000/svg">
<path d="M33.4995 0C14.9984 0 0 15.9344 0 35.5901C0 42.542 1.88322 49.0231 5.12672 54.5037C5.69886 50.129 9.22425 46.7573 13.4999 46.7573C14.6447 46.7573 15.7348 47.0019 16.7311 47.4394C17.2388 44.8642 19.3876 42.9293 21.9626 42.9293C23.3312 42.9293 24.5758 43.4808 25.5219 44.3797C27.0135 38.2865 32.2263 33.7885 38.4285 33.7885C45.4773 33.7885 51.245 39.6 51.7276 46.9585C52.2998 46.8289 52.8916 46.7578 53.5001 46.7578C57.7758 46.7578 61.3006 50.129 61.8733 54.5042C65.1168 49.0236 67 42.5426 67 35.5906C66.999 15.9339 52.0006 0 33.4995 0ZM53.6153 12.5768L35.3581 24.435L30.1891 32.2122C29.4571 33.3134 28.4028 34.1267 27.1901 34.5244L24.1877 35.5091L26.2392 30.2318L14.4292 36.0595C12.7334 37.052 10.9382 37.8376 9.07666 38.402C8.31068 38.6346 7.69868 37.7085 8.16506 37.0222L10.4453 33.6641L6.78363 32.0857L10.5255 29.5602L14.8272 29.8231L23.0336 24.747L6.23608 22.5675L11.1862 19.8282C11.8961 19.4352 12.6753 19.2042 13.4743 19.1503L34.7023 17.7088L44.3393 11.9104C46.6461 10.5227 49.3381 10.0403 51.9455 10.5484L53.2989 10.8118C54.1141 10.9707 54.3188 12.1111 53.6153 12.5768Z" fill="#46EB14"/>
</svg>
