<svg width="48" height="48" viewBox="0 0 48 48" fill="none" xmlns="http://www.w3.org/2000/svg">
<circle cx="24" cy="24" r="24" fill="#E3FADC"/>
<path d="M9.93164 11.9464C9.93164 10.8332 10.8567 9.93103 11.998 9.93103H36.0032C37.1445 9.93103 38.0696 10.8332 38.0696 11.9464V36.0536C38.0696 37.1668 37.1445 38.069 36.0032 38.069H11.998C10.8567 38.069 9.93164 37.1668 9.93164 36.0536V11.9464ZM18.6245 33.486V20.78H14.4021V33.486H18.6245ZM16.5142 19.0442C17.9861 19.0442 18.9024 18.0699 18.9024 16.8494C18.876 15.6026 17.9879 14.6547 16.5423 14.6547C15.0967 14.6547 14.1523 15.6043 14.1523 16.8494C14.1523 18.0699 15.0686 19.0442 16.486 19.0442H16.5142ZM25.1455 33.486V26.39C25.1455 26.0101 25.1736 25.6302 25.2862 25.3594C25.5904 24.6014 26.2851 23.8153 27.4528 23.8153C28.981 23.8153 29.5913 24.9795 29.5913 26.6889V33.486H33.8137V26.1983C33.8137 22.2941 31.7315 20.4792 28.9529 20.4792C26.7124 20.4792 25.7082 21.7103 25.1455 22.5773V22.6212H25.1173C25.1267 22.6066 25.1361 22.5919 25.1455 22.5773V20.78H20.9248C20.9775 21.9723 20.9248 33.486 20.9248 33.486H25.1455Z" fill="#46EB14"/>
</svg>
