<svg width="48" height="48" viewBox="0 0 48 48" fill="none" xmlns="http://www.w3.org/2000/svg">
<circle cx="24" cy="24" r="24" fill="#E3FADC"/>
<circle cx="24.0006" cy="24.0001" r="18.5806" fill="#46EB14"/>
<path d="M24.2903 24.4001C23.4103 24.4001 22.5664 24.1117 21.9442 23.5985C21.3219 23.0852 20.9723 22.3891 20.9723 21.6632C20.9723 20.9373 21.3219 20.2412 21.9442 19.728C22.5664 19.2147 23.4103 18.9263 24.2903 18.9263C25.1703 18.9263 26.0142 19.2147 26.6365 19.728C27.2587 20.2412 27.6083 20.9373 27.6083 21.6632C27.6083 22.0226 27.5225 22.3785 27.3557 22.7106C27.189 23.0426 26.9446 23.3443 26.6365 23.5985C26.3284 23.8526 25.9626 24.0542 25.5601 24.1917C25.1575 24.3293 24.726 24.4001 24.2903 24.4001ZM24.2903 14C21.8264 14 19.4633 14.8074 17.7211 16.2445C15.9788 17.6816 15 19.6308 15 21.6632C15 27.4106 24.2903 35.8949 24.2903 35.8949C24.2903 35.8949 33.5806 27.4106 33.5806 21.6632C33.5806 19.6308 32.6018 17.6816 30.8596 16.2445C29.1173 14.8074 26.7543 14 24.2903 14Z" fill="white"/>
</svg>
