<svg width="33" height="43" viewBox="0 0 33 43" fill="none" xmlns="http://www.w3.org/2000/svg">
<path d="M0 29.3182V33.2273C1.27459 33.2273 2.53671 33.4801 3.71428 33.9712C4.89185 34.4623 5.96182 35.1822 6.8631 36.0896C7.76437 36.9971 8.4793 38.0745 8.96707 39.2601C9.45483 40.4458 9.70588 41.7166 9.70588 43H13.5882C13.5882 39.3714 12.1566 35.8913 9.60833 33.3255C7.06004 30.7597 3.60382 29.3182 0 29.3182ZM0 37.1364V43H5.82353C5.82353 41.4449 5.20998 39.9534 4.11786 38.8538C3.02573 37.7541 1.5445 37.1364 0 37.1364ZM0 21.5V25.4091C4.63349 25.4091 9.0772 27.2624 12.3536 30.5614C15.6299 33.8603 17.4706 38.3346 17.4706 43H21.3529C21.3529 31.1164 11.8024 21.5 0 21.5ZM29.1176 0H9.70588C8.67622 0 7.68873 0.41185 6.96064 1.14495C6.23256 1.87804 5.82353 2.87234 5.82353 3.90909V18.3141C7.16294 18.6268 8.46353 19.0373 9.70588 19.5455V7.81818H29.1176V33.2273H23.2359C24.2647 35.6705 24.8665 38.2895 25.08 41.0455H29.1176C30.1473 41.0455 31.1348 40.6336 31.8629 39.9005C32.591 39.1674 33 38.1731 33 37.1364V3.90909C33 2.87234 32.591 1.87804 31.8629 1.14495C31.1348 0.41185 30.1473 0 29.1176 0Z" fill="#46EB14"/>
</svg>
