<svg width="71" height="71" viewBox="0 0 71 71" fill="none" xmlns="http://www.w3.org/2000/svg">
<circle cx="35.5" cy="35.5" r="35.5" fill="#E3FADC"/>
<circle cx="35.5" cy="35.5" r="28.5" fill="#46EB14"/>
<path d="M34.2621 29.3676C32.7177 29.7636 31.7871 30.8758 31.7871 31.9245C31.7871 32.9733 32.7177 34.0855 34.2621 34.48V29.3676ZM36.7371 37.1035V42.2144C38.2815 41.8199 39.2121 40.7077 39.2121 39.6589C39.2121 38.6101 38.2815 37.4979 36.7371 37.1035Z" fill="#F8F7F8"/>
<path fill-rule="evenodd" clip-rule="evenodd" d="M52 35.7916C52 44.335 44.6129 51.2604 35.5 51.2604C26.3871 51.2604 19 44.335 19 35.7916C19 27.2482 26.3871 20.3229 35.5 20.3229C44.6129 20.3229 52 27.2482 52 35.7916ZM35.5 25.3502C35.8282 25.3502 36.143 25.4724 36.375 25.69C36.6071 25.9076 36.7375 26.2027 36.7375 26.5104V27.0007C39.427 27.4524 41.6875 29.3473 41.6875 31.9244C41.6875 32.2321 41.5571 32.5272 41.325 32.7448C41.093 32.9624 40.7782 33.0846 40.45 33.0846C40.1218 33.0846 39.807 32.9624 39.575 32.7448C39.3429 32.5272 39.2125 32.2321 39.2125 31.9244C39.2125 30.8757 38.2819 29.7635 36.7375 29.3675V34.7351C39.427 35.1868 41.6875 37.0817 41.6875 39.6588C41.6875 42.2359 39.427 44.1308 36.7375 44.5825V45.0729C36.7375 45.3806 36.6071 45.6757 36.375 45.8932C36.143 46.1108 35.8282 46.233 35.5 46.233C35.1718 46.233 34.857 46.1108 34.625 45.8932C34.3929 45.6757 34.2625 45.3806 34.2625 45.0729V44.5825C31.573 44.1308 29.3125 42.2359 29.3125 39.6588C29.3125 39.3511 29.4429 39.056 29.675 38.8385C29.907 38.6209 30.2218 38.4987 30.55 38.4987C30.8782 38.4987 31.193 38.6209 31.425 38.8385C31.6571 39.056 31.7875 39.3511 31.7875 39.6588C31.7875 40.7076 32.7181 41.8198 34.2625 42.2143V36.8481C31.573 36.3965 29.3125 34.5015 29.3125 31.9244C29.3125 29.3473 31.573 27.4524 34.2625 27.0007V26.5104C34.2625 26.2027 34.3929 25.9076 34.625 25.69C34.857 25.4724 35.1718 25.3502 35.5 25.3502Z" fill="#F8F7F8"/>
</svg>
