<svg width="71" height="71" viewBox="0 0 71 71" fill="none" xmlns="http://www.w3.org/2000/svg">
<circle cx="35.5" cy="35.5" r="35.5" fill="#E3FADC"/>
<circle cx="35.5" cy="35.5" r="28.5" fill="#46EB14"/>
<path d="M28.4167 47.1388C27.7521 47.1388 27.183 46.9168 26.7093 46.4727C26.2356 46.0286 25.9992 45.4955 26 44.8732V33.545C26 32.922 26.2368 32.3884 26.7105 31.9444C27.1842 31.5003 27.7529 31.2787 28.4167 31.2794H29.625V29.0138C29.625 27.4467 30.2143 26.1108 31.3928 25.0059C32.5713 23.901 33.9959 23.349 35.6667 23.3497C37.3382 23.3497 38.7632 23.9022 39.9418 25.007C41.1203 26.1119 41.7091 27.4475 41.7083 29.0138V31.2794H42.9167C43.5813 31.2794 44.1504 31.5015 44.624 31.9455C45.0977 32.3896 45.3341 32.9228 45.3333 33.545V44.8732C45.3333 45.4962 45.0965 46.0298 44.6228 46.4738C44.1492 46.9179 43.5804 47.1396 42.9167 47.1388H28.4167ZM35.6667 41.4747C36.3313 41.4747 36.9004 41.2527 37.374 40.8086C37.8477 40.3646 38.0841 39.8314 38.0833 39.2091C38.0833 38.5861 37.8465 38.0525 37.3728 37.6084C36.8992 37.1644 36.3304 36.9427 35.6667 36.9435C35.0021 36.9435 34.433 37.1655 33.9593 37.6096C33.4856 38.0536 33.2492 38.5868 33.25 39.2091C33.25 39.8322 33.4868 40.3657 33.9605 40.8098C34.4342 41.2538 35.0029 41.4755 35.6667 41.4747ZM32.0417 31.2794H39.2917V29.0138C39.2917 28.0698 38.9392 27.2674 38.2344 26.6066C37.5295 25.9458 36.6736 25.6154 35.6667 25.6154C34.6597 25.6154 33.8038 25.9458 33.099 26.6066C32.3941 27.2674 32.0417 28.0698 32.0417 29.0138V31.2794Z" fill="white"/>
</svg>
