<svg width="71" height="71" viewBox="0 0 71 71" fill="none" xmlns="http://www.w3.org/2000/svg">
<circle cx="35.5" cy="35.5" r="35.5" fill="#E3FADC"/>
<circle cx="35.5" cy="35.5" r="28.5" fill="#46EB14"/>
<path d="M24.8 31.6832C24.8 28.9379 25.98 26.3049 28.0804 24.3637C30.1808 22.4224 33.0296 21.3318 36 21.3318C38.9704 21.3318 41.8192 22.4224 43.9196 24.3637C46.02 26.3049 47.2 28.9379 47.2 31.6832V33.2138C49.9136 33.5731 52 35.7307 52 38.3378V38.7075C52 41.3323 49.5504 43.6333 46.6688 43.5105C45.4848 46.6455 42.4736 48.7587 39.224 49.294C38.472 49.5484 37.5824 49.4286 36.8 49.4286C36.1635 49.4286 35.553 49.1949 35.1029 48.7789C34.6529 48.3629 34.4 47.7987 34.4 47.2104C34.4 46.6221 34.6529 46.0579 35.1029 45.642C35.553 45.226 36.1635 44.9923 36.8 44.9923C38.0688 44.9923 39.4736 44.8222 40.3312 45.8928C42.4048 44.9804 44 43.0536 44 40.5559V31.6832C44 29.7223 43.1571 27.8416 41.6569 26.455C40.1566 25.0683 38.1217 24.2893 36 24.2893C33.8783 24.2893 31.8434 25.0683 30.3431 26.455C28.8429 27.8416 28 29.7223 28 31.6832V40.9256C28 41.612 27.705 42.2702 27.1799 42.7555C26.6548 43.2408 25.9426 43.5135 25.2 43.5135C23.8209 43.5135 22.4982 43.0071 21.523 42.1058C20.5479 41.2045 20 39.9821 20 38.7075V38.3378C19.9997 37.0929 20.4847 35.8897 21.3663 34.9486C22.2479 34.0075 23.467 33.3916 24.8 33.2138V31.6832Z" fill="#F8F7F8"/>
</svg>
