<svg width="48" height="48" viewBox="0 0 48 48" fill="none" xmlns="http://www.w3.org/2000/svg">
<circle cx="24" cy="24" r="24" fill="#E3FADC"/>
<path d="M24.0006 38.069C16.2303 38.069 9.93164 31.7703 9.93164 24C9.93164 16.2297 16.2303 9.93103 24.0006 9.93103C31.7709 9.93103 38.0696 16.2297 38.0696 24C38.0696 31.7703 31.7709 38.069 24.0006 38.069ZM19.6252 25.6461L19.6434 25.6362L20.8674 29.674C21.025 30.1116 21.2417 30.1903 21.5048 30.1538C21.7693 30.1186 21.9086 29.9765 22.0816 29.8105L23.753 28.1954L27.3406 30.8516C27.9962 31.2132 28.4675 31.026 28.6307 30.2438L30.9633 19.2391C31.2208 18.2148 30.7678 17.804 29.9743 18.1304L16.281 23.4204C15.3468 23.7946 15.3524 24.318 16.1121 24.5501L19.6252 25.6461Z" fill="#46EB14"/>
</svg>
