<svg width="48" height="48" viewBox="0 0 48 48" fill="none" xmlns="http://www.w3.org/2000/svg">
<circle cx="24" cy="24" r="24" fill="#E3FADC"/>
<path d="M39 14.8235C37.8958 15.3176 36.7055 15.6424 35.4723 15.7976C36.7342 15.0494 37.7094 13.8635 38.1683 12.4376C36.978 13.1435 35.6587 13.6376 34.2677 13.92C33.1348 12.7059 31.543 12 29.7361 12C26.3662 12 23.6128 14.7106 23.6128 18.0565C23.6128 18.5365 23.6702 19.0024 23.7706 19.44C18.6654 19.1859 14.1195 16.7718 11.0937 13.1153C10.5631 14.0047 10.262 15.0494 10.262 16.1506C10.262 18.2541 11.3375 20.1176 13.001 21.1765C11.9828 21.1765 11.0363 20.8941 10.2046 20.4706V20.5129C10.2046 23.4494 12.327 25.9059 15.1377 26.4565C14.2353 26.6996 13.2879 26.7334 12.37 26.5553C12.7595 27.7588 13.5223 28.8119 14.5512 29.5665C15.5801 30.3211 16.8233 30.7393 18.1061 30.7624C15.9316 32.4571 13.2361 33.3732 10.4627 33.36C9.97514 33.36 9.48757 33.3318 9 33.2753C11.7247 34.9976 14.9656 36 18.4359 36C29.7361 36 35.9455 26.7671 35.9455 18.7624C35.9455 18.4941 35.9455 18.24 35.9312 17.9718C37.1358 17.1247 38.1683 16.0518 39 14.8235Z" fill="#46EB14"/>
</svg>
