<svg width="48" height="48" viewBox="0 0 48 48" fill="none" xmlns="http://www.w3.org/2000/svg">
<circle cx="24" cy="24" r="24" fill="#E3FADC"/>
<path d="M24 11C31.1799 11 37 16.8201 37 24C37 31.1799 31.1799 37 24 37C21.7026 37.0037 19.4457 36.3957 17.461 35.2385L11.0052 37L12.7628 30.5416C11.6046 28.5563 10.9962 26.2984 11 24C11 16.8201 16.8201 11 24 11ZM19.5696 17.89L19.3096 17.9004C19.1413 17.9106 18.9768 17.9549 18.826 18.0304C18.685 18.1103 18.5563 18.2101 18.4438 18.3268C18.2878 18.4737 18.1994 18.6011 18.1045 18.7246C17.6237 19.3498 17.3648 20.1173 17.3687 20.906C17.3713 21.543 17.5377 22.1631 17.7977 22.7429C18.3294 23.9155 19.2043 25.157 20.3587 26.3075C20.6369 26.5844 20.9099 26.8626 21.2037 27.1213C22.6381 28.3842 24.3474 29.2949 26.1957 29.7811L26.9341 29.8942C27.1746 29.9072 27.4151 29.889 27.6569 29.8773C28.0355 29.8577 28.4052 29.7552 28.7398 29.577C28.91 29.4893 29.0762 29.3939 29.2377 29.291C29.2377 29.291 29.2936 29.2546 29.4002 29.174C29.5757 29.044 29.6836 28.9517 29.8292 28.7996C29.9371 28.6878 30.0307 28.5565 30.1022 28.407C30.2036 28.1951 30.305 27.7908 30.3466 27.4541C30.3778 27.1967 30.3687 27.0563 30.3648 26.9692C30.3596 26.8301 30.2439 26.6858 30.1178 26.6247L29.3612 26.2854C29.3612 26.2854 28.2302 25.7927 27.5386 25.4781C27.4662 25.4465 27.3887 25.4284 27.3098 25.4248C27.2209 25.4157 27.131 25.4257 27.0462 25.4541C26.9615 25.4826 26.8838 25.5289 26.8184 25.5899C26.8119 25.5873 26.7248 25.6614 25.7849 26.8002C25.731 26.8727 25.6567 26.9275 25.5715 26.9576C25.4863 26.9877 25.394 26.9917 25.3065 26.9692C25.2218 26.9465 25.1388 26.9178 25.0582 26.8834C24.897 26.8158 24.8411 26.7898 24.7306 26.743C23.9845 26.4174 23.2937 25.9775 22.6831 25.4391C22.5193 25.2961 22.3672 25.1401 22.2112 24.9893C21.6998 24.4995 21.2541 23.9454 20.8852 23.3409L20.8085 23.2174C20.7534 23.1344 20.7089 23.0449 20.6759 22.9509C20.6265 22.7598 20.7552 22.6064 20.7552 22.6064C20.7552 22.6064 21.0711 22.2606 21.218 22.0734C21.361 21.8914 21.4819 21.7146 21.5599 21.5885C21.7133 21.3415 21.7614 21.088 21.6808 20.8917C21.3168 20.0025 20.9398 19.1172 20.5524 18.2384C20.4757 18.0642 20.2482 17.9394 20.0415 17.9147C19.9713 17.9069 19.9011 17.8991 19.8309 17.8939C19.6563 17.8852 19.4814 17.887 19.307 17.8991L19.5683 17.8887L19.5696 17.89Z" fill="#46EB14"/>
</svg>
