<svg width="48" height="48" viewBox="0 0 48 48" fill="none" xmlns="http://www.w3.org/2000/svg">
<circle cx="24" cy="24" r="24" fill="#E3FADC"/>
<path d="M24.0837 14H24.2283C25.5642 14.0056 32.3327 14.0617 34.1577 14.6259C34.7094 14.7982 35.2121 15.1338 35.6157 15.5994C36.0192 16.065 36.3094 16.6443 36.4572 17.2792C36.6214 17.9892 36.7367 18.9291 36.8147 19.8988L36.831 20.0932L36.8667 20.579L36.8797 20.7733C36.9854 22.4811 36.9984 24.0805 37 24.4299V24.5701C36.9984 24.9326 36.9837 26.6404 36.8667 28.4192L36.8537 28.6154L36.8391 28.8097C36.7579 29.8785 36.6376 30.9398 36.4572 31.7208C36.3098 32.356 36.0198 32.9355 35.6162 33.4012C35.2126 33.8668 34.7096 34.2024 34.1577 34.3741C32.2726 34.957 25.1075 34.9981 24.1146 35H23.8838C23.3816 35 21.3048 34.9888 19.1271 34.9028L18.8509 34.8916L18.7095 34.8842L18.4316 34.8711L18.1537 34.858C16.3498 34.7664 14.6321 34.6188 13.8407 34.3722C13.2889 34.2006 12.7861 33.8654 12.3825 33.4001C11.9789 32.9347 11.6888 32.3556 11.5412 31.7208C11.3608 30.9416 11.2405 29.8785 11.1593 28.8097L11.1463 28.6135L11.1333 28.4192C11.0531 27.1531 11.0086 25.8843 11 24.6149L11 24.3851C11.0033 23.9834 11.0163 22.5951 11.104 21.0629L11.1154 20.8705L11.1203 20.7733L11.1333 20.579L11.169 20.0932L11.1853 19.8988C11.2633 18.9291 11.3786 17.9874 11.5428 17.2792C11.6902 16.644 11.9802 16.0645 12.3838 15.5988C12.7874 15.1332 13.2904 14.7976 13.8423 14.6259C14.6337 14.383 16.3515 14.2336 18.1553 14.1401L18.4316 14.1271L18.7111 14.1158L18.8509 14.1102L19.1288 14.0972C20.6754 14.0399 22.2226 14.0082 23.77 14.0019H24.0837V14ZM21.4007 19.9979V29.0003L28.1562 24.5009L21.4007 19.9979Z" fill="#46EB14"/>
</svg>
